<svg version="1.1" xmlns="http://www.w3.org/2000/svg" xmlns:xlink="http://www.w3.org/1999/xlink" width="91.32px" height="91.33px" viewBox="0,0,255.96875,256"><g fill="#5e3023" fill-rule="nonzero" stroke="none" stroke-width="1" stroke-linecap="butt" stroke-linejoin="miter" stroke-miterlimit="10" stroke-dasharray="" stroke-dashoffset="0" font-family="none" font-weight="none" font-size="none" text-anchor="none" style="mix-blend-mode: normal"><g transform="translate(0.07202,-0.10297) scale(2.80302,2.80302)"><g id="Layer_2"><g id="Layer_1-2"><path d="M87.15,46.31c-0.52714,1.23886 -1.81505,1.97481 -3.15,1.8c-2.48,-0.08 -5,0 -7.45,0c-0.90354,0.05805 -1.76442,-0.39104 -2.23378,-1.16527c-0.46936,-0.77424 -0.46936,-1.74522 0,-2.51945c0.46936,-0.77424 1.33025,-1.22332 2.23378,-1.16527c2.51,0 5,0 7.53,0c1.32264,-0.17584 2.59705,0.56414 3.1,1.8z"></path><path d="M45,87.15c-1.23492,-0.53048 -1.96632,-1.81758 -1.79,-3.15c0.09,-2.48 0,-5 0,-7.45c-0.05805,-0.90354 0.39104,-1.76442 1.16527,-2.23378c0.77424,-0.46936 1.74522,-0.46936 2.51945,0c0.77424,0.46936 1.22332,1.33025 1.16527,2.23378c0,2.48 -0.06,5 0,7.45c0.21156,1.34944 -0.53414,2.66684 -1.8,3.18z"></path><path d="M45.65,23.14c9.11304,-0.00403 17.33023,5.48456 20.8167,13.9043c3.48646,8.41974 1.55487,18.11076 -4.89331,24.55036c-6.44819,6.43959 -16.14178,8.35825 -24.55686,4.86057c-8.41508,-3.49769 -13.89271,-11.7222 -13.87653,-20.83522c0.01655,-12.42021 10.08978,-22.48001 22.51,-22.48zM63.33,45.66c0,-9.75757 -7.9091,-17.66816 -17.66667,-17.67c-9.75757,-0.00184 -17.66965,7.90577 -17.67333,17.66333c-0.00368,9.75757 7.90243,17.67114 17.66,17.67666c9.74684,-0.03289 17.6416,-7.92318 17.68,-17.67z"></path><path d="M64.8,67.39c0.0706,-0.9431 0.63305,-1.77917 1.48,-2.2c0.8529,-0.49396 1.92981,-0.36343 2.64,0.32c2.1,2 4.16,4.05667 6.18,6.17c0.81163,0.97057 0.74272,2.40153 -0.15843,3.28961c-0.90115,0.88809 -2.33295,0.9361 -3.29157,0.11039c-2.07333,-2 -4.11,-4.04333 -6.11,-6.13c-0.32935,-0.47659 -0.57926,-1.00343 -0.74,-1.56z"></path><path d="M26.52,23.88c-0.04755,0.97965 -0.63229,1.85292 -1.52,2.27c-0.85857,0.48188 -1.93154,0.34369 -2.64,-0.34c-2.1,-2 -4.16,-4.06 -6.18,-6.18c-0.88508,-0.95394 -0.85732,-2.43701 0.06283,-3.35717c0.92015,-0.92015 2.40323,-0.94791 3.35717,-0.06283c2.1,2 4.15667,4.06333 6.17,6.19c0.33068,0.44812 0.58417,0.94834 0.75,1.48z"></path><path d="M66.05,26.05c-0.39282,-0.2556 -0.70222,-0.62061 -0.89,-1.05c-0.41328,-0.92918 -0.21483,-2.01668 0.5,-2.74c2,-2.05333 4,-4.05333 6,-6c0.95394,-0.88508 2.43701,-0.85732 3.35717,0.06283c0.92015,0.92015 0.94791,2.40323 0.06283,3.35717c-2,2.1 -4.09,4.15 -6.18,6.17c-0.16826,0.15139 -0.361,0.27312 -0.57,0.36c-0.74132,0.31754 -1.59029,0.25796 -2.28,-0.16z"></path><path d="M23.92,64.8c0.94462,0.06519 1.78474,0.624 2.21,1.47c0.49921,0.84858 0.37688,1.92506 -0.3,2.64c-2,2.12 -4.12,4.21 -6.24,6.24c-0.96914,0.83801 -2.42776,0.75845 -3.3,-0.18c-0.89166,-0.91555 -0.9136,-2.36794 -0.05,-3.31c2,-2.06667 4.04333,-4.10333 6.13,-6.11c0.47357,-0.3307 0.99679,-0.58387 1.55,-0.75z"></path><path d="M48.09,10.81c0,1.38 0,2.76 0,4.13c0.05805,0.90354 -0.39104,1.76442 -1.16527,2.23378c-0.77424,0.46936 -1.74522,0.46936 -2.51945,0c-0.77424,-0.46936 -1.22332,-1.33025 -1.16527,-2.23378c0,-2.74667 0,-5.5 0,-8.26c-0.05805,-0.90354 0.39104,-1.76442 1.16527,-2.23378c0.77424,-0.46936 1.74522,-0.46936 2.51945,0c0.77424,0.46936 1.22332,1.33025 1.16527,2.23378c0.01,1.38 0,2.76 0,4.13z"></path><path d="M10.76,48.09h-4c-0.90354,0.05805 -1.76442,-0.39104 -2.23378,-1.16527c-0.46936,-0.77424 -0.46936,-1.74522 0,-2.51945c0.46936,-0.77424 1.33025,-1.22332 2.23378,-1.16527c2.73,0 5.45,0 8.18,0c0.90354,-0.05805 1.76442,0.39104 2.23378,1.16527c0.46936,0.77424 0.46936,1.74522 0,2.51945c-0.46936,0.77424 -1.33025,1.22332 -2.23378,1.16527z"></path><path d="M90.08,26.15c0.07072,1.59059 -0.9593,3.02188 -2.49,3.46c-2.68,1.13 -5.29,2.4 -7.94,3.61c-0.93771,0.54234 -2.1018,0.5062 -3.00406,-0.09327c-0.90226,-0.59947 -1.38667,-1.6586 -1.25007,-2.7332c0.1366,-1.0746 0.87059,-1.97886 1.89413,-2.33353c2.67,-1.23 5.37,-2.39 8,-3.69c1.31461,-0.83523 3.02863,-0.67042 4.16,0.4z"></path><path d="M65.18,90.09c-1.59377,0.06322 -3.02538,-0.96819 -3.47,-2.5c-1.12,-2.68 -2.4,-5.29 -3.6,-7.93c-0.5336,-0.9364 -0.49334,-2.09371 0.10405,-2.99076c0.59739,-0.89705 1.64971,-1.38038 2.71944,-1.24904c1.06973,0.13134 1.97387,0.85488 2.33651,1.8698c1.21,2.64 2.36,5.31 3.65,7.91c0.87762,1.33445 0.72455,3.09684 -0.37,4.26z"></path><path d="M76.59,59.45c-0.38782,-1.03649 -0.19757,-2.20086 0.5,-3.06c0.65459,-0.97893 1.88897,-1.3904 3,-1c3.22,1.12 6.41667,2.30333 9.59,3.55c1.31746,0.64369 1.9283,2.18451 1.40976,3.55606c-0.51854,1.37155 -1.99598,2.12286 -3.40976,1.73394c-3.18,-1.12 -6.34333,-2.3 -9.49,-3.54c-0.59602,-0.32541 -1.13617,-0.74403 -1.6,-1.24z"></path><path d="M14.7,31.82c0.44072,1.06716 0.25607,2.29047 -0.48,3.18c-0.68548,0.93781 -1.90662,1.31229 -3,0.92c-3.21333,-1.13333 -6.40667,-2.32 -9.58,-3.56c-1.35,-0.62569 -1.9882,-2.18726 -1.46287,-3.57939c0.52533,-1.39212 2.03607,-2.14277 3.46287,-1.72061c3.21,1.12 6.4,2.32 9.58,3.57c0.54935,0.32147 1.04808,0.72248 1.48,1.19z"></path><path d="M57.79,14.88c-0.54654,-0.08258 -1.05728,-0.32232 -1.47,-0.69c-0.90314,-0.79386 -1.225,-2.06144 -0.81,-3.19c1.11333,-3.12 2.27667,-6.23 3.49,-9.33c0.55228,-1.46355 2.18645,-2.20228 3.65,-1.65c1.46355,0.55228 2.20228,2.18645 1.65,3.65c-1.12,3.18 -2.3,6.33 -3.57,9.54c-0.10377,0.24338 -0.2493,0.46674 -0.43,0.66c-0.61554,0.73465 -1.55717,1.11356 -2.51,1.01z"></path><path d="M31.86,76.6c1.03633,-0.39304 2.2031,-0.21061 3.07,0.48c0.97597,0.65684 1.38668,1.88894 1,3c-1.13333,3.25333 -2.33,6.47667 -3.59,9.67c-0.58266,1.4746 -2.2504,2.19766 -3.725,1.615c-1.4746,-0.58266 -2.19766,-2.2504 -1.615,-3.725c1.12,-3.18667 2.3,-6.35 3.54,-9.49c0.35718,-0.58183 0.80248,-1.10471 1.32,-1.55z"></path><path d="M31.27,7.43c0.67,1.46 1.35,2.92 2,4.39c0.48674,0.93406 0.41657,2.06078 -0.18231,2.92722c-0.59888,0.86644 -1.62809,1.33029 -2.67389,1.20506c-1.0458,-0.12522 -1.93641,-0.81895 -2.31379,-1.80229c-1.35,-2.92 -2.7,-5.85 -4,-8.78c-0.45366,-0.92633 -0.36941,-2.02581 0.22009,-2.87221c0.5895,-0.8464 1.59155,-1.30665 2.61772,-1.20232c1.02616,0.10432 1.9151,0.75682 2.3222,1.70453c0.68,1.5 1.34,3 2.01,4.43z"></path><path d="M9.74,65.24c-1.44,0.66 -2.87,1.33 -4.31,2c-0.93069,0.50011 -2.06206,0.44223 -2.93686,-0.15023c-0.8748,-0.59247 -1.34839,-1.62158 -1.22936,-2.6714c0.11902,-1.04982 0.81099,-1.94678 1.79622,-2.32837c2.88667,-1.33333 5.78333,-2.66667 8.69,-4c0.92845,-0.48489 2.04842,-0.41937 2.914,0.17048c0.86557,0.58984 1.33621,1.60824 1.22453,2.64971c-0.11169,1.04147 -0.78756,1.93692 -1.75852,2.32981c-1.46,0.67 -2.93,1.33 -4.39,2z"></path></g></g></g></g></svg>