<svg version="1.1" xmlns="http://www.w3.org/2000/svg" xmlns:xlink="http://www.w3.org/1999/xlink" width="48.56px" height="55.83px" viewBox="0,0,222.65625,256"><g fill="#5e3023" fill-rule="nonzero" stroke="none" stroke-width="1" stroke-linecap="butt" stroke-linejoin="miter" stroke-miterlimit="10" stroke-dasharray="" stroke-dashoffset="0" font-family="none" font-weight="none" font-size="none" text-anchor="none" style="mix-blend-mode: normal"><g transform="translate(0.03853,-0.15997) scale(4.58535,4.58535)"><g id="Layer_2"><g id="Layer_1-2"><path d="M2.84,12.93c2.31549,0.52015 4.51767,1.45523 6.5,2.76c7.73,5.09 11.23,12.31 10.45,21.64c-0.53815,4.97546 -2.75279,9.61986 -6.28,13.17c-0.86559,0.73491 -1.20811,1.91602 -0.87,3c0.35352,1.0716 1.32376,1.82007 2.45,1.89c10.31,1.69 19,-1.26 26.15,-8.93c5.1,-5 8,-14.64 7.17,-22c-0.76,-6.55 -5,-15.78 -13.48,-20.73c-10.88851,-6.11462 -24.47954,-4.49808 -33.63,4l-0.14,0.13c-0.06,0 -0.17,0.17 -0.29,0.3c-0.49079,0.49656 -0.79766,1.14558 -0.87,1.84c-0.0374,0.44171 0.03831,0.88566 0.22,1.29c0.47,0.99 1.37,1.36 2.62,1.64zM15,6.16v0c1.89431,-0.45749 3.85516,-0.57263 5.79,-0.34c15.57,1.83 20.32,11.4 21.38,19.18c1.39,10.13 -4.17,20.31 -13.77,24c-2.49082,0.98122 -5.15381,1.45056 -7.83,1.38c4.63,-7.35 6,-15.19 3.56,-23.52c-2.44,-8.33 -7.86,-14.18 -15.87,-17.81c2.05808,-1.35435 4.3401,-2.33284 6.74,-2.89z"></path></g></g></g></g></svg>