<svg version="1.1" xmlns="http://www.w3.org/2000/svg" xmlns:xlink="http://www.w3.org/1999/xlink" width="76.24px" height="48.01px" viewBox="0,0,256,161.20313"><g fill="none" fill-rule="nonzero" stroke="#5e3023" stroke-width="none" stroke-linecap="butt" stroke-linejoin="miter" stroke-miterlimit="10" stroke-dasharray="" stroke-dashoffset="0" font-family="none" font-weight="none" font-size="none" text-anchor="none" style="mix-blend-mode: normal"><g transform="translate(0.03367,-0.83835) scale(3.35782,3.35782)"><g id="Layer_2"><g id="Layer_1-2"><path d="M2.49,34.1l3.15,-4c1.09628,-1.38966 2.83044,-2.1175 4.59013,-1.92649c1.75969,0.19101 3.2973,1.27397 4.06987,2.86649l0.87,1.79c0.80706,1.66393 2.44577,2.76604 4.2912,2.88603c1.84543,0.11999 3.61306,-0.76063 4.6288,-2.30603l1.91,-2.92c1.00226,-1.51778 2.73079,-2.39434 4.54749,-2.30607c1.8167,0.08827 3.45211,1.12827 4.30251,2.73607l0.57,1.08c0.90342,1.71396 2.69387,2.7743 4.63109,2.74261c1.93722,-0.03169 3.69203,-1.15002 4.53891,-2.89261v-0.09c0.84625,-1.73088 2.58787,-2.84463 4.51409,-2.88674c1.92622,-0.0421 3.71484,0.99449 4.63591,2.68674v0c0.90259,1.66975 2.65194,2.70618 4.55,2.69571c1.89806,-0.01046 3.63587,-1.06611 4.52,-2.74571l0.12,-0.23c0.90158,-1.71486 2.69082,-2.77708 4.62802,-2.7475c1.93719,0.02958 3.69318,1.14592 4.54198,2.8875l1.4,2.87" stroke-width="4"></path><path d="M2.49,44.38l3.15,-4c1.09474,-1.39042 2.82775,-2.11989 4.5873,-1.93094c1.75955,0.18896 3.29815,1.26978 4.0727,2.86094l0.87,1.8c0.80706,1.66393 2.44577,2.76604 4.2912,2.88603c1.84543,0.11999 3.61306,-0.76063 4.6288,-2.30603l1.91,-2.92c1.00226,-1.51778 2.73079,-2.39434 4.54749,-2.30607c1.8167,0.08827 3.45211,1.12827 4.30251,2.73607l0.56,1.06c0.90158,1.71486 2.69082,2.77708 4.62802,2.7475c1.93719,-0.02958 3.69318,-1.14592 4.54198,-2.8875v-0.1c0.84819,-1.72984 2.59096,-2.8416 4.51714,-2.88159c1.92618,-0.04 3.7136,0.99846 4.63286,2.69159v0c0.8934,1.67463 2.63696,2.72063 4.535,2.72063c1.89804,0 3.6416,-1.04599 4.535,-2.72063l0.12,-0.24c0.90342,-1.71396 2.69387,-2.7743 4.63109,-2.74261c1.93722,0.03169 3.69203,1.15002 4.53891,2.89261l1.4,2.86" stroke-width="4"></path><path d="M73.74,24.78c-0.01013,-0.88758 -0.12765,-1.77067 -0.35,-2.63c-0.33524,-1.25711 -0.9202,-2.43383 -1.72,-3.46c-0.85878,-1.19647 -1.96348,-2.19547 -3.24,-2.93c-1.14578,-0.63917 -2.40045,-1.05966 -3.7,-1.24c-0.25382,-0.09935 -0.45609,-0.29801 -0.56,-0.55c-2,-4.68 -6,-7.21 -11,-6.7c-1.1456,0.17448 -2.26886,0.4729 -3.35,0.89c-0.57711,0.20195 -1.21842,0.00306 -1.58,-0.49c-1.18934,-1.65089 -2.76995,-2.98067 -4.6,-3.87c-0.67183,-0.3275 -1.3712,-0.5952 -2.09,-0.8c-0.37,-0.11 -0.74,-0.21 -1.12,-0.29c-0.98677,-0.19951 -1.99701,-0.25676 -3,-0.17c-0.40896,0.02913 -0.81616,0.07919 -1.22,0.15c-0.4291,0.07806 -0.85319,0.18158 -1.27,0.31c-1.51465,0.55986 -2.96332,1.2842 -4.32,2.16c-1.25295,1.05955 -2.41685,2.22011 -3.48,3.47l-0.14,-0.1c-1.63353,-0.86673 -3.45088,-1.32964 -5.3,-1.35c-1.62131,-0.00763 -3.21914,0.38754 -4.65,1.15c-2.27104,1.23295 -4.03969,3.22092 -5,5.62c-0.14932,0.30483 -0.42883,0.5255 -0.76,0.6c-1.14519,0.19068 -2.2546,0.55486 -3.29,1.08c-1.45953,0.77304 -2.70101,1.90103 -3.61,3.28c-0.14,0.22 -0.29,0.44 -0.43,0.68c-0.6247,1.10011 -1.07346,2.29118 -1.33,3.53c-0.10172,0.53059 -0.15195,1.06976 -0.15,1.61" stroke-width="5"></path></g></g></g></g></svg>