<svg version="1.1" xmlns="http://www.w3.org/2000/svg" xmlns:xlink="http://www.w3.org/1999/xlink" width="101.55px" height="84.55px" viewBox="0,0,256,213.14063"><g fill="none" fill-rule="nonzero" stroke="none" stroke-width="none" stroke-linecap="butt" stroke-linejoin="miter" stroke-miterlimit="10" stroke-dasharray="" stroke-dashoffset="0" font-family="none" font-weight="none" font-size="none" text-anchor="none" style="mix-blend-mode: normal"><g transform="translate(-0.0196,0.14849) scale(2.52093,2.52093)"><g id="Layer_2"><g id="Layer_1-2"><path d="M83,56.14l0.92,0.25l-0.29,1.08l1.08,0.3l-0.24,0.92c-0.34,-0.09 -0.67,-0.16 -1,-0.27c-0.23728,-0.08675 -0.50187,-0.05321 -0.71,0.09c-0.48,0.31 -1,0.59 -1.49,0.87c-0.07572,0.03537 -0.11714,0.1182 -0.1,0.2c0.01502,0.19972 0.01502,0.40028 0,0.6c0,0.09 0,0.14 0.09,0.19l1.74,1c0.07117,0.02516 0.14883,0.02516 0.22,0l1.1,-0.29h0.14l0.24,0.92l-1.08,0.29l0.29,1.09l-0.92,0.25c-0.10195,-0.30808 -0.18543,-0.62197 -0.25,-0.94c-0.0424,-0.28883 -0.23171,-0.53494 -0.5,-0.65c-0.53,-0.28 -1,-0.59 -1.53,-0.88l-0.78,0.45c0,0.58 0,1.19 0,1.8c-0.02533,0.26411 0.0836,0.52329 0.29,0.69c0.24555,0.21726 0.47923,0.4476 0.7,0.69l-0.68,0.68l-0.76,-0.78l-0.77,0.78l-0.69,-0.7c0.1,-0.1 0.24,-0.22 0.36,-0.35c0.12,-0.13 0.36,-0.35 0.53,-0.53c0.04407,-0.04269 0.07229,-0.09913 0.08,-0.16v-2.13l-0.77,-0.45l-0.24,0.14l-1.52,0.88c-0.10457,0.04949 -0.17898,0.14623 -0.2,0.26c-0.1,0.39 -0.21,0.78 -0.32,1.18l-0.94,-0.24l0.28,-1.09l-1.11,-0.28l0.24,-0.92l0.39,0.1l0.87,0.23c0.06516,0.02005 0.13484,0.02005 0.2,0l1.75,-1c0.06482,-0.03453 0.0978,-0.10875 0.08,-0.18c0,-0.20667 0,-0.41667 0,-0.63c0.01984,-0.07157 -0.01966,-0.14617 -0.09,-0.17l-1.73,-1c-0.0746,-0.02515 -0.1554,-0.02515 -0.23,0c-0.36,0.08 -0.72,0.19 -1.07,0.28h-0.17l-0.24,-0.91l1.08,-0.29l-0.25,-1.12l0.92,-0.25c0.1,0.36 0.2,0.71 0.28,1.06c0.03302,0.19653 0.15996,0.36455 0.34,0.45c0.53,0.29 1,0.6 1.58,0.91c0.08,0 0.12,0 0.21,0c0.17283,-0.11833 0.35321,-0.22523 0.54,-0.32c0.06386,-0.01478 0.10673,-0.0748 0.1,-0.14v-2c-0.00418,-0.07262 -0.03646,-0.14076 -0.09,-0.19c-0.29,-0.3 -0.6,-0.6 -0.88,-0.88l0.67,-0.68l0.75,0.79l0.79,-0.82l0.69,0.7c-0.28,0.28 -0.56,0.57 -0.86,0.85c-0.08225,0.07323 -0.12646,0.18007 -0.12,0.29v2l0.7,0.44c0.04108,0.01975 0.08892,0.01975 0.13,0l1.78,-1c0.05659,-0.04096 0.09582,-0.1016 0.11,-0.17c0.11,-0.37 0.2,-0.74 0.3,-1.1zM79.46,60.67c0.4363,0 0.79,-0.3537 0.79,-0.79c0,-0.4363 -0.3537,-0.79 -0.79,-0.79c-0.4363,0 -0.79,0.3537 -0.79,0.79c0,0.4363 0.3537,0.79 0.79,0.79z" fill="#000000" stroke="#5e3023" stroke-width="0.5"></path><path d="M47.62,56.14l0.91,0.25l-0.29,1.08l1.09,0.3l-0.25,0.92c-0.34,-0.09 -0.67,-0.16 -1,-0.27c-0.23728,-0.08675 -0.50187,-0.05321 -0.71,0.09c-0.49,0.31 -1,0.59 -1.49,0.87c-0.07709,0.03476 -0.12193,0.11628 -0.11,0.2c0.01502,0.19972 0.01502,0.40028 0,0.6c-0.02313,0.07436 0.01065,0.15458 0.08,0.19l1.75,1c0.07117,0.02516 0.14883,0.02516 0.22,0l1.18,-0.27h0.13l0.25,0.92l-1.09,0.29l0.29,1.09l-0.92,0.25c-0.09,-0.32 -0.19,-0.62 -0.25,-0.94c-0.0345,-0.29211 -0.22651,-0.54173 -0.5,-0.65c-0.53,-0.28 -1,-0.59 -1.53,-0.88l-0.77,0.45c0,0.58 0,1.19 0,1.8c-0.02957,0.26258 0.07582,0.52228 0.28,0.69c0.24794,0.2147 0.48176,0.44518 0.7,0.69l-0.67,0.68l-0.77,-0.78l-0.77,0.78l-0.69,-0.7l0.37,-0.35l0.52,-0.53c0.04407,-0.04269 0.07229,-0.09913 0.08,-0.16c0,-0.71 0,-1.43 0,-2.12l-0.78,-0.45l-0.24,0.14l-1.52,0.88c-0.10457,0.04949 -0.17898,0.14623 -0.2,0.26c-0.1,0.39 -0.21,0.78 -0.32,1.18l-0.92,-0.24l0.29,-1.09l-1.14,-0.31l0.25,-0.92l0.38,0.1l0.87,0.23c0.06868,0.0192 0.14132,0.0192 0.21,0l1.74,-1c0.06611,-0.03389 0.10255,-0.10678 0.09,-0.18c0,-0.20667 0,-0.41667 0,-0.63c0.00803,-0.06982 -0.02774,-0.13739 -0.09,-0.17l-1.73,-1c-0.07811,-0.02457 -0.16189,-0.02457 -0.24,0c-0.36,0.08 -0.71,0.19 -1.07,0.28h-0.16l-0.25,-0.91l1.09,-0.29l-0.29,-1.09l0.92,-0.25c0.1,0.36 0.21,0.71 0.28,1.06c0.03302,0.19653 0.15996,0.36455 0.34,0.45c0.54,0.29 1.06,0.6 1.58,0.91c0.06163,0.0484 0.14837,0.0484 0.21,0c0.17418,-0.11619 0.35444,-0.22301 0.54,-0.32c0.08,0 0.11,-0.06 0.11,-0.14c0,-0.68 0,-1.36 0,-2c-0.00569,-0.07025 -0.03373,-0.13684 -0.08,-0.19l-0.9,-0.94l0.68,-0.68l0.75,0.79l0.78,-0.82l0.7,0.7c-0.28,0.28 -0.57,0.57 -0.87,0.85c-0.07784,0.07628 -0.12118,0.18102 -0.12,0.29c0,0.69 0,1.38 0,2c0.25,0.16 0.47,0.31 0.7,0.44c0.03761,0.01957 0.08239,0.01957 0.12,0l1.79,-1c0.05308,-0.04418 0.09145,-0.10348 0.11,-0.17c0.1,-0.37 0.2,-0.74 0.29,-1.1c0.02,-0.07 0.04,-0.1 0.06,-0.16zM44.07,60.67c0.3204,0.00406 0.61152,-0.18583 0.73696,-0.48069c0.12543,-0.29486 0.06034,-0.63628 -0.16479,-0.8643c-0.22513,-0.22802 -0.56569,-0.29746 -0.86213,-0.17579c-0.29643,0.12167 -0.49001,0.41034 -0.49004,0.73077c0.00524,0.43024 0.34986,0.77928 0.78,0.79z" fill="#000000" stroke="#5e3023" stroke-width="0.5"></path><path d="M70.59,62c0.00164,4.33377 -3.44787,7.88082 -7.78,8c-2.09625,0.07279 -4.1352,-0.6921 -5.66635,-2.12568c-1.53115,-1.43357 -2.42845,-3.41782 -2.49365,-5.51432c0.02398,-1.59008 0.39245,-3.15605 1.08,-4.59c1.20498,-2.53032 2.57459,-4.97891 4.1,-7.33c1.58,-2.45 3.85,-2.44 5.53,-0.06c2.25072,3.00784 3.94416,6.39472 5,10c0.062,0.23 0.10877,0.46384 0.14,0.7c0.07,0.34 0.08,0.7 0.09,0.92zM62.79,56h-0.37c-0.76,1.69 -1.58,3.35 -2.27,5.07c-0.44925,1.08248 -0.0828,2.33172 0.88,3c0.912,0.67508 2.158,0.67508 3.07,0c0.99821,-0.64063 1.39415,-1.9043 0.94,-3c-0.67,-1.67 -1.49,-3.34 -2.25,-5.07z" fill="#5e3023" stroke="none" stroke-width="1"></path><path d="M26.52,23.88c-0.04755,0.97965 -0.63229,1.85292 -1.52,2.27c-0.85857,0.48188 -1.93154,0.34369 -2.64,-0.34c-2.1,-2 -4.16,-4.06 -6.18,-6.18c-0.88508,-0.95394 -0.85732,-2.43701 0.06283,-3.35717c0.92015,-0.92015 2.40323,-0.94791 3.35717,-0.06283c2.1,2 4.15667,4.06333 6.17,6.19c0.33068,0.44812 0.58417,0.94834 0.75,1.48z" fill="#5e3023" stroke="none" stroke-width="1"></path><path d="M66.05,26.05c-0.39282,-0.2556 -0.70222,-0.62061 -0.89,-1.05c-0.41328,-0.92918 -0.21483,-2.01668 0.5,-2.74c2,-2.05333 4,-4.05333 6,-6c0.95394,-0.88508 2.43701,-0.85732 3.35717,0.06283c0.92015,0.92015 0.94791,2.40323 0.06283,3.35717c-2,2.1 -4.09,4.15 -6.18,6.17c-0.16826,0.15139 -0.361,0.27312 -0.57,0.36c-0.74132,0.31754 -1.59029,0.25796 -2.28,-0.16z" fill="#5e3023" stroke="none" stroke-width="1"></path><path d="M48.09,10.81c0,1.38 0,2.76 0,4.13c0.05805,0.90354 -0.39104,1.76442 -1.16527,2.23378c-0.77424,0.46936 -1.74522,0.46936 -2.51945,0c-0.77424,-0.46936 -1.22332,-1.33025 -1.16527,-2.23378c0,-2.74667 0,-5.5 0,-8.26c-0.05805,-0.90354 0.39104,-1.76442 1.16527,-2.23378c0.77424,-0.46936 1.74522,-0.46936 2.51945,0c0.77424,0.46936 1.22332,1.33025 1.16527,2.23378c0.01,1.38 0,2.76 0,4.13z" fill="#5e3023" stroke="none" stroke-width="1"></path><path d="M10.76,48.09h-4c-0.90354,0.05805 -1.76442,-0.39104 -2.23378,-1.16527c-0.46936,-0.77424 -0.46936,-1.74522 0,-2.51945c0.46936,-0.77424 1.33025,-1.22332 2.23378,-1.16527c2.73,0 5.45,0 8.18,0c0.90354,-0.05805 1.76442,0.39104 2.23378,1.16527c0.46936,0.77424 0.46936,1.74522 0,2.51945c-0.46936,0.77424 -1.33025,1.22332 -2.23378,1.16527z" fill="#5e3023" stroke="none" stroke-width="1"></path><path d="M90.08,26.15c0.07072,1.59059 -0.9593,3.02188 -2.49,3.46c-2.68,1.13 -5.29,2.4 -7.94,3.61c-0.93771,0.54234 -2.1018,0.5062 -3.00406,-0.09327c-0.90226,-0.59947 -1.38667,-1.6586 -1.25007,-2.7332c0.1366,-1.0746 0.87059,-1.97886 1.89413,-2.33353c2.67,-1.23 5.37,-2.39 8,-3.69c1.31461,-0.83523 3.02863,-0.67042 4.16,0.4z" fill="#5e3023" stroke="none" stroke-width="1"></path><path d="M14.7,31.82c0.44072,1.06716 0.25607,2.29047 -0.48,3.18c-0.68548,0.93781 -1.90662,1.31229 -3,0.92c-3.21333,-1.13333 -6.40667,-2.32 -9.58,-3.56c-1.35,-0.62569 -1.9882,-2.18726 -1.46287,-3.57939c0.52533,-1.39212 2.03607,-2.14277 3.46287,-1.72061c3.21,1.12 6.4,2.32 9.58,3.57c0.54935,0.32147 1.04808,0.72248 1.48,1.19z" fill="#5e3023" stroke="none" stroke-width="1"></path><path d="M57.79,14.88c-0.54654,-0.08258 -1.05728,-0.32232 -1.47,-0.69c-0.90314,-0.79386 -1.225,-2.06144 -0.81,-3.19c1.11333,-3.12 2.27667,-6.23 3.49,-9.33c0.55228,-1.46355 2.18645,-2.20228 3.65,-1.65c1.46355,0.55228 2.20228,2.18645 1.65,3.65c-1.12,3.18 -2.3,6.33 -3.57,9.54c-0.10377,0.24338 -0.2493,0.46674 -0.43,0.66c-0.61554,0.73465 -1.55717,1.11356 -2.51,1.01z" fill="#5e3023" stroke="none" stroke-width="1"></path><path d="M31.27,7.43c0.67,1.46 1.35,2.92 2,4.39c0.48674,0.93406 0.41657,2.06078 -0.18231,2.92722c-0.59888,0.86644 -1.62809,1.33029 -2.67389,1.20506c-1.0458,-0.12522 -1.93641,-0.81895 -2.31379,-1.80229c-1.35,-2.92 -2.7,-5.85 -4,-8.78c-0.45366,-0.92633 -0.36941,-2.02581 0.22009,-2.87221c0.5895,-0.8464 1.59155,-1.30665 2.61772,-1.20232c1.02616,0.10432 1.9151,0.75682 2.3222,1.70453c0.68,1.5 1.34,3 2.01,4.43z" fill="#5e3023" stroke="none" stroke-width="1"></path><path d="M9.74,65.24c-1.44,0.66 -2.87,1.33 -4.31,2c-0.93069,0.50011 -2.06206,0.44223 -2.93686,-0.15023c-0.8748,-0.59247 -1.34839,-1.62158 -1.22936,-2.6714c0.11902,-1.04982 0.81099,-1.94678 1.79622,-2.32837c2.88667,-1.33333 5.78333,-2.66667 8.69,-4c0.92845,-0.48489 2.04842,-0.41937 2.914,0.17048c0.86557,0.58984 1.33621,1.60824 1.22453,2.64971c-0.11169,1.04147 -0.78756,1.93692 -1.75852,2.32981c-1.46,0.67 -2.93,1.33 -4.39,2z" fill="#5e3023" stroke="none" stroke-width="1"></path><path d="M45.65,63.33c9.74457,-0.03833 17.63616,-7.92545 17.68,-17.67c-0.00271,-1.82734 -0.29293,-3.64287 -0.86,-5.38c-1.05919,-0.06414 -2.12099,0.07155 -3.13,0.4c-2.78091,0.84686 -4.91401,3.09004 -5.62,5.91c-0.48,1.72 -1.5,2.55 -3,2.42c-0.81267,-0.13102 -1.5358,-0.59021 -2,-1.27c-1.40243,-1.80019 -3.70464,-2.64898 -5.94,-2.19c-2.65801,0.45448 -4.69594,2.61061 -5,5.29c-0.35,2.09 -1.37,2.86 -3.5,2.73c-0.62116,-0.03674 -1.24437,0.01716 -1.85,0.16c-0.68019,0.17318 -1.32604,0.4606 -1.91,0.85c3.15986,5.36818 8.90117,8.68851 15.13,8.75z" fill="none" stroke="none" stroke-width="1"></path><path d="M33,47.67c2.91,-6.91 10,-9.51 16.63,-6.07h0.12c1.1829,-1.38975 2.47719,-2.6807 3.87,-3.86c1.50524,-0.97427 3.11538,-1.77599 4.8,-2.39c0.45409,-0.12548 0.9148,-0.22563 1.38,-0.3c-4.94283,-6.77647 -13.97912,-9.12631 -21.59694,-5.61619c-7.61782,3.51012 -11.70274,11.90594 -9.76306,20.06619c1.16651,-0.5931 2.41812,-1.0013 3.71,-1.21c0.36131,-0.07027 0.67273,-0.29742 0.85,-0.62z" fill="none" stroke="none" stroke-width="1"></path><path d="M45.64,68.18c-7.08502,0.01265 -13.75911,-3.3244 -18,-9c-0.04493,0.39539 -0.04493,0.79461 0,1.19c0.29149,3.25872 3.11323,5.7001 6.38,5.52c2.25,-0.12 3.42,0.87 3.67,2.87c0.21237,2.47897 1.98986,4.54264 4.41,5.12c2.38047,0.79206 5.00141,-0.01067 6.53,-2c0.61438,-0.94445 1.7275,-1.4383 2.84,-1.26c1.15974,0.25666 2.04434,1.1968 2.23,2.37c1.00128,3.69623 4.35555,6.26276 8.185,6.26276c3.82945,0 7.18372,-2.56652 8.185,-6.26276c0.19925,-1.16565 1.0647,-2.1055 2.21,-2.4c1.13896,-0.19583 2.28467,0.30812 2.91,1.28c1.55432,1.92355 4.10441,2.73735 6.48564,2.06973c2.38123,-0.66761 4.13657,-2.68851 4.46436,-5.13973c0.35,-2.22 1.18,-2.94 3.58,-2.88h0.57c2.25857,-0.0423 4.31539,-1.30965 5.36868,-3.30803c1.05329,-1.99837 0.93634,-4.41147 -0.30526,-6.29862c-1.2416,-1.88715 -3.41134,-2.94966 -5.66342,-2.77335c-2.24,0.16 -3.22,-0.61 -3.56,-2.83c-0.24802,-1.82073 -1.31669,-3.42742 -2.9,-4.36c-2.59542,-1.62321 -5.99195,-1.07139 -7.94,1.29c-0.48574,0.71563 -1.23895,1.20576 -2.09,1.36c-1.53,0.16 -2.57,-0.67 -3.07,-2.45c-0.38543,-1.39957 -1.11809,-2.67914 -2.13,-3.72c0.12065,0.94185 0.18077,1.89046 0.18,2.84c0.00267,5.97604 -2.37218,11.70765 -6.60069,15.93053c-4.22851,4.22288 -9.96327,6.5901 -15.93931,6.57947z" fill="none" stroke="none" stroke-width="1"></path><path d="M28.44,49.5c-1.8302,-8.11732 2.26777,-16.40848 9.82806,-19.88448c7.56029,-3.47599 16.52171,-1.18915 21.49194,5.48448c1.56323,-0.29107 3.16677,-0.29107 4.73,0c0.42,0.09 0.84,0.2 1.24,0.32c-4.72256,-9.27874 -15.18997,-14.11061 -25.31506,-11.68573c-10.12509,2.42489 -17.26803,11.47431 -17.27494,21.88573c0.00193,2.56397 0.43462,5.1094 1.28,7.53c1.00696,-1.53945 2.39077,-2.7959 4.02,-3.65z" fill="#5e3023" stroke="none" stroke-width="1"></path><path d="M34.22,53.57c2.13,0.13 3.15,-0.64 3.5,-2.73c0.30406,-2.67939 2.34199,-4.83552 5,-5.29c2.23536,-0.45898 4.53757,0.38981 5.94,2.19c0.4642,0.67979 1.18733,1.13898 2,1.27c1.51,0.13 2.53,-0.7 3,-2.42c0.70599,-2.81996 2.83909,-5.06314 5.62,-5.91c1.00901,-0.32845 2.07081,-0.46414 3.13,-0.4c-0.60737,-1.86604 -1.52341,-3.61699 -2.71,-5.18c-0.4652,0.07437 -0.92591,0.17452 -1.38,0.3c-1.68462,0.61401 -3.29476,1.41573 -4.8,2.39c-1.39281,1.1793 -2.6871,2.47025 -3.87,3.86h-0.12c-6.53,-3.49 -13.66,-0.89 -16.53,6.02c-0.16856,0.31329 -0.46356,0.5391 -0.81,0.62c-1.29188,0.2087 -2.54349,0.6169 -3.71,1.21c0.39993,1.78658 1.07462,3.50029 2,5.08c0.58396,-0.3894 1.22981,-0.67682 1.91,-0.85c0.59915,-0.14092 1.21548,-0.1948 1.83,-0.16z" fill="#5e3023" stroke="none" stroke-width="1"></path><path d="M101.15,56.75c-0.59,-2.8 -3.43,-5.65 -3.43,-5.65c-1.74842,-1.53251 -3.90717,-2.51976 -6.21,-2.84c-0.23,0 -0.51,-0.36 -0.62,-0.61c-2.16,-5.21 -6.61,-8 -12.2,-7.46c-1.66542,0.31471 -3.30124,0.76966 -4.89,1.36c-1.82051,-2.98394 -4.70411,-5.16718 -8.07,-6.11c1.18076,2.31254 1.94894,4.81338 2.27,7.39c1.01191,1.04086 1.74457,2.32043 2.13,3.72c0.5,1.78 1.54,2.61 3.07,2.45c0.85105,-0.15424 1.60426,-0.64437 2.09,-1.36c1.94805,-2.36139 5.34458,-2.91321 7.94,-1.29c1.58331,0.93258 2.65198,2.53927 2.9,4.36c0.34,2.22 1.32,3 3.56,2.83c2.25207,-0.17631 4.42181,0.8862 5.66342,2.77335c1.2416,1.88715 1.35856,4.30024 0.30526,6.29862c-1.05329,1.99837 -3.11011,3.26573 -5.36868,3.30803h-0.57c-2.4,-0.06 -3.23,0.66 -3.58,2.88c-0.34534,2.42988 -2.09367,4.42624 -4.45677,5.08903c-2.36311,0.6628 -4.89462,-0.13317 -6.45323,-2.02903c-0.62533,-0.97188 -1.77104,-1.47583 -2.91,-1.28c-1.15112,0.29747 -2.01795,1.24668 -2.21,2.42c-1.00128,3.69623 -4.35555,6.26276 -8.185,6.26276c-3.82945,0 -7.18372,-2.56652 -8.185,-6.26276c-0.18566,-1.1732 -1.07026,-2.11334 -2.23,-2.37c-1.1125,-0.1783 -2.22562,0.31555 -2.84,1.26c-1.52859,1.98933 -4.14953,2.79206 -6.53,2c-2.42014,-0.57736 -4.19763,-2.64103 -4.41,-5.12c-0.25,-2 -1.42,-3 -3.67,-2.87c-3.26677,0.1801 -6.08851,-2.26128 -6.38,-5.52c-0.04493,-0.39539 -0.04493,-0.79461 0,-1.19c-1.37398,-1.82509 -2.46305,-3.84812 -3.23,-6c-0.16,0.24 -0.33,0.48 -0.48,0.75c-0.66028,1.40689 -1.2054,2.865 -1.63,4.36v3c0.07205,0.12506 0.12593,0.25975 0.16,0.4c0.80251,4.8554 4.61292,8.65776 9.47,9.45c0.54884,0.06397 0.99976,0.46301 1.13,1c1.51298,4.03852 5.18055,6.87344 9.47,7.32c2.57312,0.31171 5.17625,-0.25189 7.39,-1.6c2.55711,4.17709 7.10236,6.72392 12,6.72392c4.89764,0 9.44289,-2.54683 12,-6.72392l0.31,0.16c2.96627,1.7151 6.54207,2.02076 9.7564,0.83399c3.21433,-1.18677 5.73356,-3.74279 6.8736,-6.97399c0.11396,-0.38693 0.46667,-0.65451 0.87,-0.66c3.26215,-0.49204 6.15681,-2.35905 7.95045,-5.12791c1.79364,-2.76886 2.31412,-6.17384 1.42955,-9.35209z" fill="#5e3023" stroke="none" stroke-width="1"></path><path d="M59.76,35.1c1.18659,1.56301 2.10263,3.31396 2.71,5.18c2.09596,0.13411 4.0671,1.04304 5.53,2.55c-0.32106,-2.57662 -1.08924,-5.07746 -2.27,-7.39c-0.4,-0.12 -0.82,-0.23 -1.24,-0.32c-1.562,-0.29768 -3.16554,-0.30446 -4.73,-0.02z" fill="#5e3023" stroke="none" stroke-width="1"></path><path d="M30.46,54.58c-0.92538,-1.57971 -1.60007,-3.29342 -2,-5.08c-1.62192,0.85688 -2.9986,2.1131 -4,3.65c0.76695,2.15188 1.85602,4.17491 3.23,6c0.19407,-1.86071 1.21018,-3.5371 2.77,-4.57z" fill="#5e3023" stroke="none" stroke-width="1"></path></g></g></g></g></svg>