<svg version="1.1" xmlns="http://www.w3.org/2000/svg" xmlns:xlink="http://www.w3.org/1999/xlink" width="79.24px" height="49.66px" viewBox="0,0,256,160.42188"><g fill="#5e3023" fill-rule="nonzero" stroke="none" stroke-width="1" stroke-linecap="butt" stroke-linejoin="miter" stroke-miterlimit="10" stroke-dasharray="" stroke-dashoffset="0" font-family="none" font-weight="none" font-size="none" text-anchor="none" style="mix-blend-mode: normal"><g transform="translate(-0.01691,0.03003) scale(3.23069,3.23069)"><g id="Layer_2"><g id="Layer_1-2"><path d="M48.68,27.51c-0.02462,4.3269 -3.46529,7.86032 -7.79,8c-4.36185,0.1404 -8.01329,-3.27836 -8.16,-7.64c0.02254,-1.59346 0.39104,-3.163 1.08,-4.6c1.2073,-2.50982 2.57687,-4.9383 4.1,-7.27c1.58,-2.45 3.85,-2.44 5.53,-0.06c2.25556,3.00486 3.94945,6.39264 5,10c0.06581,0.2257 0.11263,0.4565 0.14,0.69c0.07,0.31 0.08,0.67 0.1,0.88zM40.88,21.51h-0.38c-0.76,1.69 -1.58,3.35 -2.26,5.07c-0.45127,1.08018 -0.08916,2.32884 0.87,3c0.90427,0.68049 2.14405,0.70068 3.07,0.05c1.03501,-0.6348 1.45823,-1.92562 1,-3.05c-0.73,-1.66 -1.55,-3.33 -2.3,-5.02z"></path><path d="M62.84,26.43c-0.00933,2.593 -2.06841,4.71394 -4.66,4.8c-1.2537,0.04313 -2.47299,-0.41457 -3.38862,-1.27203c-0.91563,-0.85746 -1.45226,-2.04414 -1.49138,-3.29797c0.01215,-0.95214 0.23049,-1.89034 0.64,-2.75c0.71942,-1.51747 1.54132,-2.98419 2.46,-4.39c0.94,-1.47 2.3,-1.46 3.3,0c1.35424,1.80235 2.37066,3.8352 3,6c0.04056,0.13413 0.07065,0.27121 0.09,0.41c0.03,0.16 0.04,0.37 0.05,0.5zM58.17,22.87h-0.23c-0.45,1 -0.94,2 -1.35,3c-0.27137,0.64458 -0.0545,1.39114 0.52,1.79c0.54805,0.40021 1.29195,0.40021 1.84,0c0.60747,-0.38744 0.84459,-1.15808 0.56,-1.82c-0.4,-0.96 -0.89,-1.96 -1.34,-2.97z"></path><path d="M27.43,26.43c-0.00413,2.59512 -2.06614,4.71907 -4.66,4.8c-1.2537,0.04313 -2.47299,-0.41457 -3.38862,-1.27203c-0.91563,-0.85746 -1.45226,-2.04414 -1.49138,-3.29797c0.01074,-0.95344 0.23273,-1.89265 0.65,-2.75c0.71942,-1.51747 1.54132,-2.98419 2.46,-4.39c1,-1.47 2.3,-1.46 3.31,0c1.35424,1.80235 2.37066,3.8352 3,6c0.03721,0.1344 0.06396,0.27147 0.08,0.41c0.03,0.16 0.03,0.37 0.04,0.5zM22.76,22.87h-0.22c-0.46,1 -0.95,2 -1.36,3c-0.26533,0.64711 -0.04488,1.39167 0.53,1.79c0.54491,0.39852 1.28509,0.39852 1.83,0c0.61473,-0.38161 0.85723,-1.1559 0.57,-1.82c-0.4,-0.96 -0.89,-1.96 -1.35,-2.97z"></path><path d="M78.84,21.86c-0.59,-2.8 -3.43,-5.65 -3.43,-5.65c-1.74938,-1.53103 -3.90766,-2.51807 -6.21,-2.84c-0.23,0 -0.51,-0.36 -0.62,-0.61c-2.16,-5.21 -6.58,-8.02 -12.21,-7.46c-1.66293,0.3114 -3.29571,0.76644 -4.88,1.36c-1.37318,-2.25196 -3.36595,-4.06073 -5.74,-5.21c-0.74919,-0.36678 -1.52878,-0.66791 -2.33,-0.9c-0.42,-0.12 -0.82,-0.23 -1.25,-0.32c-1.10589,-0.24212 -2.24147,-0.31963 -3.37,-0.23c-0.5,0 -1,0.1 -1.35,0.17c-0.84,0.14 -1.39,0.29 -1.39,0.29c-1.67909,0.62367 -3.28523,1.42841 -4.79,2.4c-1.39609,1.17908 -2.69372,2.47003 -3.88,3.86h-0.11c-1.81371,-0.9675 -3.83445,-1.48212 -5.89,-1.5c-1.8047,-0.00801 -3.58366,0.42815 -5.18,1.27c-2.52846,1.39092 -4.49417,3.61826 -5.56,6.3c-0.16856,0.31329 -0.46356,0.5391 -0.81,0.62c-1.29262,0.20565 -2.54469,0.614 -3.71,1.21c-1.62398,0.85395 -3.00133,2.11078 -4,3.65c-0.16,0.24 -0.33,0.48 -0.48,0.75c-0.66661,1.40304 -1.21842,2.85781 -1.65,4.35v3c0.07205,0.12506 0.12593,0.25975 0.16,0.4c0.79962,4.85688 4.61144,8.66065 9.47,9.45c0.54884,0.06397 0.99976,0.46301 1.13,1c1.50706,4.04288 5.17783,6.88026 9.47,7.32c2.57312,0.31171 5.17625,-0.25189 7.39,-1.6c2.55347,4.18206 7.10002,6.73309 12,6.73309c4.89998,0 9.44653,-2.55103 12,-6.73309l0.32,0.15c2.96271,1.71919 6.53758,2.02818 9.75134,0.84284c3.21376,-1.18534 5.73183,-3.74161 6.86866,-6.97284c0.12055,-0.38658 0.47513,-0.65251 0.88,-0.66c3.25663,-0.4887 6.14843,-2.34775 7.94501,-5.1076c1.79658,-2.75985 2.32616,-6.15663 1.45499,-9.3324zM68,31h-0.57c-2.4,-0.06 -3.23,0.65 -3.58,2.88c-0.31872,2.44981 -2.06361,4.47553 -4.43918,5.15365c-2.37557,0.67811 -4.92688,-0.12124 -6.49082,-2.03365c-0.62064,-0.98494 -1.77166,-1.50132 -2.92,-1.31c-1.15267,0.27901 -2.02209,1.22747 -2.2,2.4c-1.00128,3.69623 -4.35555,6.26276 -8.185,6.26276c-3.82945,0 -7.18372,-2.56652 -8.185,-6.26276c-0.18707,-1.17605 -1.07636,-2.11695 -2.24,-2.37c-1.11022,-0.18213 -2.22247,0.31308 -2.83,1.26c-1.52341,1.99664 -4.14528,2.80769 -6.53,2.02c-1.4681,-0.37192 -2.73826,-1.29144 -3.55,-2.57c-0.46087,-0.78095 -0.75378,-1.64944 -0.86,-2.55c-0.25,-2 -1.42,-3 -3.65,-2.87v0c-3.26859,0.18543 -6.09353,-2.25871 -6.38,-5.52c-0.04493,-0.39539 -0.04493,-0.79461 0,-1.19c0.28949,-2.62031 2.1679,-4.78923 4.72,-5.45c0.60463,-0.14901 1.22877,-0.20299 1.85,-0.16c2.04,0.12 3.1,-0.69 3.44,-2.69c0.21694,-1.60914 1.04394,-3.07339 2.31,-4.09c0.79324,-0.61286 1.72305,-1.02459 2.71,-1.2c0.83519,-0.16571 1.69481,-0.16571 2.53,0c1.34444,0.322 2.54178,1.08619 3.4,2.17c0.4642,0.67979 1.18733,1.13898 2,1.27c1.5,0.13 2.53,-0.7 3,-2.42c0.70222,-2.83882 2.84985,-5.09668 5.65,-5.94c1.00901,-0.32845 2.07081,-0.46414 3.13,-0.4h0.05c2.07865,0.13699 4.03201,1.04238 5.48,2.54c0.33231,0.34618 0.63347,0.72096 0.9,1.12c0.54826,0.79425 0.96368,1.67238 1.23,2.6c0.5,1.78 1.54,2.61 3.07,2.45c0.86766,-0.13914 1.64076,-0.62685 2.14,-1.35c1.94805,-2.36139 5.34458,-2.91321 7.94,-1.29c1.58331,0.93258 2.65198,2.53927 2.9,4.36c0.34,2.22 1.32,3 3.56,2.83c2.30918,-0.28819 4.58529,0.74096 5.89417,2.66507c1.30888,1.92411 1.4301,4.41913 0.3139,6.46106c-1.1162,2.04193 -3.28182,3.28687 -5.60806,3.22388z"></path></g></g></g></g></svg>