<svg version="1.1" xmlns="http://www.w3.org/2000/svg" xmlns:xlink="http://www.w3.org/1999/xlink" width="64.24px" height="82.03px" viewBox="0,0,200.46875,256"><g fill="#5e3023" fill-rule="nonzero" stroke="none" stroke-width="1" stroke-linecap="butt" stroke-linejoin="miter" stroke-miterlimit="10" stroke-dasharray="" stroke-dashoffset="0" font-family="none" font-weight="none" font-size="none" text-anchor="none" style="mix-blend-mode: normal"><g transform="translate(-0.06844,0.04681) scale(3.12081,3.12081)"><g id="Layer_2"><g id="Layer_1-2"><path d="M49.18,29.84l5.12,1.38l-1.6,6.08l6.07,1.7l-1.38,5.16c-1.9,-0.51 -3.75,-0.9 -5.53,-1.51c-1.33309,-0.52303 -2.8408,-0.3308 -4,0.51c-2.73,1.72 -5.56,3.27 -8.36,4.86c-0.38198,0.20964 -0.58425,0.64249 -0.5,1.07c0.065,1.11572 0.065,2.23428 0,3.35c0,0.49 0,0.79 0.49,1.07c3.26,1.85 6.5,3.76 9.77,5.6c0.37817,0.1866 0.80939,0.23608 1.22,0.14c2.06,-0.51 4.11,-1.09 6.16,-1.64c0.23,-0.06 0.46,-0.09 0.76,-0.16l1.38,5.13l-6.08,1.64l1.6,6.09l-5.15,1.39c-0.48,-1.76 -1.09,-3.46 -1.39,-5.22c-0.21443,-1.62679 -1.26005,-3.02473 -2.76,-3.69c-3,-1.54 -5.81,-3.3 -8.57,-4.89l-4.43,2.52c0,3.23 0.1,6.67 0,10.09c-0.15059,1.4704 0.45579,2.91666 1.61,3.84c1.41,1.2 2.65,2.6 3.91,3.86l-3.79,3.79l-4.27,-4.34l-4.33,4.34l-3.84,-3.91c0.57,-0.55 1.31,-1.26 2,-2c1,-1 2,-2 2.95,-3c0.24049,-0.24309 0.39198,-0.56017 0.43,-0.9c0,-4 0,-8 0,-11.88l-4.34,-2.49l-1.32,0.76c-2.84,1.64 -5.68,3.3 -8.54,4.91c-0.57328,0.3082 -0.96923,0.86698 -1.07,1.51c-0.54,2.2 -1.16,4.39 -1.77,6.66l-5.16,-1.35l1.6,-6.09l-6.07,-1.65l1.37,-5.14l2.14,0.57c1.63,0.43 3.25,0.9 4.88,1.29c0.38578,0.08652 0.78974,0.03337 1.14,-0.15c3.27,-1.85 6.51,-3.74 9.77,-5.6c0.37203,-0.18282 0.57349,-0.59397 0.49,-1c-0.05999,-1.1759 -0.05999,-2.3541 0,-3.53c0.09654,-0.41309 -0.11893,-0.83559 -0.51,-1c-3.23,-1.85 -6.44,-3.74 -9.69,-5.57c-0.41006,-0.19894 -0.87576,-0.25186 -1.32,-0.15c-2,0.49 -4,1.06 -6,1.59c-0.28,0.08 -0.56,0.12 -0.91,0.19l-1.36,-5.07l6.07,-1.65l-1.6,-6.08l5.15,-1.39c0.55,2 1.16,4 1.59,5.95c0.18737,1.09537 0.89091,2.03342 1.89,2.52c3,1.62 5.91,3.36 8.84,5.08c0.35306,0.26451 0.8466,0.23047 1.16,-0.08c0.95548,-0.65944 1.95819,-1.2477 3,-1.76c0.42,-0.2 0.58,-0.37 0.58,-0.82c0,-3.79 0,-7.58 0,-11.37c-0.03262,-0.39528 -0.20241,-0.76671 -0.48,-1.05c-1.66,-1.69 -3.35,-3.35 -5,-4.95l3.79,-3.78l4.27,4.38l4.37,-4.61l3.91,3.91c-1.57,1.56 -3.18,3.2 -4.84,4.79c-0.4776,0.40665 -0.73676,1.01381 -0.7,1.64c0,3.85 0,7.7 0,11.3c1.41,0.9 2.66,1.72 3.93,2.49c0.23564,0.08056 0.49463,0.05503 0.71,-0.07c3.33,-1.91 6.67,-3.82 10,-5.78c0.32351,-0.24664 0.5472,-0.60171 0.63,-1c0.58,-2 1.1,-4.1 1.65,-6.16c0.08,-0.16 0.15,-0.36 0.26,-0.67zM29.32,55.2c1.80016,0.02432 3.43682,-1.0408 4.14356,-2.69661c0.70674,-1.6558 0.34366,-3.57448 -0.91923,-4.85755c-1.26289,-1.28307 -3.17557,-1.67653 -4.84237,-0.99613c-1.6668,0.6804 -2.75774,2.29997 -2.76196,4.10029c0.02085,2.42187 1.95876,4.39075 4.38,4.45z"></path><path d="M60.7,3.86l1.89,0.5l-0.59,2.25l2.24,0.62l-0.51,1.9c-0.7,-0.18 -1.38,-0.33 -2,-0.55c-0.48715,-0.19038 -1.0378,-0.11872 -1.46,0.19c-1,0.63 -2.06,1.2 -3.09,1.79c-0.15972,0.06813 -0.24804,0.24057 -0.21,0.41c0.025,0.41296 0.025,0.82704 0,1.24c-0.03753,0.15871 0.03632,0.32283 0.18,0.4c1.21,0.68 2.4,1.38 3.61,2.07c0.14011,0.06681 0.29865,0.08442 0.45,0.05c0.77,-0.19 1.52,-0.4 2.28,-0.61l0.28,-0.06l0.51,1.9l-2.24,0.6l0.59,2.25l-1.9,0.52c-0.20585,-0.63413 -0.3794,-1.27829 -0.52,-1.93c-0.07453,-0.59623 -0.4531,-1.11109 -1,-1.36c-1.21,-0.57 -2.21,-1.22 -3.21,-1.81l-1.61,0.93c0,1.19 0,2.46 0,3.73c-0.05858,0.54301 0.16387,1.07839 0.59,1.42c0.52,0.44 1,1 1.45,1.42l-1.43,1.41l-1.57,-1.61l-1.6,1.62l-1.44,-1.45l0.75,-0.73c0.37,-0.36 0.73,-0.72 1.09,-1.1c0.09164,-0.08692 0.14851,-0.20422 0.16,-0.33c0,-1.47 0,-2.95 0,-4.39l-1.61,-0.92l-0.49,0.28l-3.15,1.82c-0.21329,0.10364 -0.36784,0.29867 -0.42,0.53c-0.2,0.82 -0.43,1.62 -0.65,2.46l-1.91,-0.5l0.59,-2.26l-2.23,-0.56l0.51,-1.9l0.79,0.2c0.6,0.16 1.2,0.34 1.8,0.48c0.14173,0.02912 0.28907,0.01158 0.42,-0.05l3.61,-2.08c0.1374,-0.06252 0.21243,-0.21256 0.18,-0.36c0,-0.44 0,-0.87 0,-1.3c0.0286,-0.14694 -0.04529,-0.29471 -0.18,-0.36c-1.2,-0.69 -2.39,-1.39 -3.59,-2.06c-0.14664,-0.08003 -0.31817,-0.10147 -0.48,-0.06c-0.75,0.18 -1.48,0.39 -2.22,0.59l-0.36,0.02l-0.5,-1.89l2.24,-0.61l-0.59,-2.25l1.9,-0.51c0.21,0.74 0.43,1.46 0.59,2.19c0.06775,0.40803 0.3285,0.75817 0.7,0.94c1.1,0.6 2.19,1.24 3.27,1.87c0.12366,0.1062 0.30634,0.1062 0.43,0c0.35809,-0.24747 0.73605,-0.46487 1.13,-0.65c0.15,-0.08 0.21,-0.14 0.21,-0.31c0,-1.4 0,-2.8 0,-4.2c-0.01557,-0.14623 -0.07883,-0.28328 -0.18,-0.39c-0.6,-0.65 -1.2,-1.26 -1.82,-1.85l1.4,-1.4l1.55,1.64l1.67,-1.7l1.44,1.44c-0.57,0.58 -1.17,1.19 -1.78,1.78c-0.17017,0.15162 -0.26216,0.3724 -0.25,0.6c0,1.42 0,2.84 0,4.17c0.52,0.33 1,0.64 1.46,0.92c0.08216,0.03951 0.17784,0.03951 0.26,0c1.23,-0.71 2.46,-1.42 3.68,-2.14c0.10912,-0.09808 0.17701,-0.23386 0.19,-0.38c0.21,-0.75 0.41,-1.52 0.61,-2.27c0.02,-0.12 0.05,-0.12 0.09,-0.26zM53.36,13.23c0.66417,0.00809 1.26763,-0.38523 1.52835,-0.99614c0.26072,-0.61091 0.12721,-1.31875 -0.33813,-1.79271c-0.46534,-0.47396 -1.17062,-0.62043 -1.7862,-0.37097c-0.61559,0.24947 -1.01991,0.84561 -1.02401,1.50981c0.00515,0.89751 0.72274,1.62839 1.62,1.65z"></path></g></g></g></g></svg>