<svg version="1.1" xmlns="http://www.w3.org/2000/svg" xmlns:xlink="http://www.w3.org/1999/xlink" width="79.24px" height="49.66px" viewBox="0,0,256,160.42188"><g fill="none" fill-rule="nonzero" stroke="none" stroke-width="none" stroke-linecap="butt" stroke-linejoin="miter" stroke-miterlimit="10" stroke-dasharray="" stroke-dashoffset="0" font-family="none" font-weight="none" font-size="none" text-anchor="none" style="mix-blend-mode: normal"><g transform="translate(-0.01691,0.03003) scale(3.23069,3.23069)"><g id="Layer_2"><g id="Layer_1-2"><path d="M46.3,18.08l1.65,0.45l-0.52,2l2,0.53l-0.43,1.63c-0.62,-0.17 -1.21,-0.29 -1.79,-0.49c-0.42497,-0.16064 -0.90224,-0.09675 -1.27,0.17c-0.88,0.55 -1.79,1.05 -2.7,1.56c-0.13471,0.06529 -0.2086,0.21306 -0.18,0.36c0.02499,0.35957 0.02499,0.72043 0,1.08c0,0.16 0,0.26 0.16,0.35l3.15,1.81c0.12954,0.04496 0.27046,0.04496 0.4,0l2,-0.53l0.23,0l0.44,1.65l-2,0.53l0.52,2l-1.66,0.45c-0.16,-0.57 -0.35,-1.12 -0.45,-1.69c-0.07511,-0.52819 -0.41994,-0.97912 -0.91,-1.19c-1,-0.49 -1.87,-1.06 -2.76,-1.57l-1.4,0.81c0,1 0,2.15 0,3.25c-0.04997,0.47289 0.14178,0.93911 0.51,1.24c0.46,0.39 0.86,0.84 1.27,1.25l-1.23,1.22l-1.37,-1.4l-1.4,1.41l-1.26,-1.3l0.7,-0.66c0.32,-0.32 0.64,-0.63 0.95,-1c0.07936,-0.07716 0.12894,-0.17986 0.14,-0.29c0,-1.28 0,-2.57 0,-3.83l-1.4,-0.8l-0.42,0.24c-0.92,0.53 -1.84,1.07 -2.76,1.59c-0.1813,0.09355 -0.31277,0.26153 -0.36,0.46c-0.17,0.72 -0.37,1.42 -0.57,2.15l-1.67,-0.44l0.52,-2l-2,-0.53l0.44,-1.55l0.69,0.18c0.53,0.14 1.05,0.29 1.58,0.41c0.12025,0.03898 0.24975,0.03898 0.37,0l3.15,-1.81c0.11806,-0.05972 0.18306,-0.18972 0.16,-0.32c-0.02,-0.37974 -0.02,-0.76026 0,-1.14c0.02399,-0.13057 -0.04701,-0.26003 -0.17,-0.31c-1,-0.6 -2.08,-1.21 -3.12,-1.8c-0.13989,-0.04445 -0.29011,-0.04445 -0.43,0c-0.65,0.16 -1.29,0.34 -1.93,0.51l-0.3,0.07l-0.44,-1.79l2,-0.54l-0.52,-2l1.67,-0.45c0.17,0.65 0.37,1.28 0.51,1.92c0.05607,0.3546 0.28468,0.65817 0.61,0.81c1,0.53 1.9,1.09 2.85,1.64c0.10577,0.0931 0.26423,0.0931 0.37,0c0.31818,-0.21544 0.6525,-0.406 1,-0.57c0.11968,-0.03308 0.19926,-0.14618 0.19,-0.27c0,-1.22 0,-2.44 0,-3.66c-0.01555,-0.12754 -0.07164,-0.24672 -0.16,-0.34c-0.53,-0.55 -1.08,-1.08 -1.6,-1.6l1.22,-1.22l1.36,1.43l1.41,-1.48l1.2,1.33c-0.5,0.5 -1,1 -1.56,1.54c-0.14916,0.13401 -0.22689,0.33019 -0.21,0.53c0,1.24 0,2.48 0,3.64c0.45,0.29 0.86,0.56 1.27,0.81c0.06939,0.034 0.15061,0.034 0.22,0c1.08,-0.61 2.16,-1.23 3.22,-1.86c0.10605,-0.07808 0.18057,-0.19163 0.21,-0.32c0.18,-0.65 0.35,-1.32 0.53,-2c0.02118,-0.08826 0.0479,-0.1751 0.08,-0.26zM39.89,26.26c0.78977,0 1.43,-0.64023 1.43,-1.43c0,-0.78977 -0.64023,-1.43 -1.43,-1.43c-0.79087,0.00525 -1.43377,0.63928 -1.45,1.43c0.01094,0.79299 0.65693,1.43008 1.45,1.43z" fill="#000000" stroke="#5e3023" stroke-width="0.5"></path><path d="M60.24,20.93l0.92,0.24l-0.29,1.09l1.09,0.29l-0.25,0.93c-0.34,-0.09 -0.67,-0.16 -1,-0.27c-0.2333,-0.09228 -0.49763,-0.05829 -0.7,0.09c-0.49,0.31 -1,0.58 -1.5,0.87c-0.08,0 -0.1,0.1 -0.1,0.2c0.01501,0.19638 0.01501,0.39362 0,0.59c0,0.09 0,0.14 0.09,0.19l1.75,1c0.06787,0.02443 0.14213,0.02443 0.21,0l1.1,-0.29h0.14l0.25,0.91l-1.09,0.3l0.29,1.08l-0.92,0.25c-0.10193,-0.3047 -0.18542,-0.61526 -0.25,-0.93c-0.041,-0.29179 -0.2302,-0.54154 -0.5,-0.66c-0.53,-0.27 -1,-0.59 -1.53,-0.87l-0.78,0.45c0,0.57 0,1.19 0,1.8c-0.02984,0.25974 0.07592,0.51658 0.28,0.68c0.25,0.22 0.48,0.47 0.7,0.69l-0.68,0.68l-0.76,-0.77l-0.77,0.78l-0.69,-0.7l0.37,-0.36l0.52,-0.52c0.04232,-0.04396 0.07022,-0.09977 0.08,-0.16v-2.13l-0.77,-0.44l-0.24,0.14l-1.51,0.92c-0.10257,0.05195 -0.1761,0.14754 -0.2,0.26c-0.1,0.39 -0.21,0.78 -0.32,1.19l-0.92,-0.25l0.29,-1.08l-1.09,-0.3l0.25,-0.92l0.38,0.1l0.87,0.23c0.06349,0.0291 0.13651,0.0291 0.2,0l1.75,-1c0.08,0 0.09,-0.09 0.09,-0.17c0,-0.08 0,-0.42 0,-0.63c0.00948,-0.07273 -0.02613,-0.14394 -0.09,-0.18l-1.74,-1c-0.07383,-0.02949 -0.15617,-0.02949 -0.23,0l-1.07,0.29h-0.16l-0.25,-0.91l1.09,-0.3l-0.29,-1.08l0.92,-0.25c0.1,0.36 0.21,0.71 0.28,1.06c0.03896,0.19392 0.1641,0.35954 0.34,0.45c0.53,0.29 1.06,0.6 1.58,0.91c0.06163,0.0484 0.14837,0.0484 0.21,0c0.17071,-0.11874 0.35138,-0.22246 0.54,-0.31c0.08,0 0.11,-0.07 0.1,-0.15c0,-0.68 0,-1.35 0,-2c-0.00695,-0.07188 -0.03878,-0.13908 -0.09,-0.19l-0.88,-0.88l0.68,-0.68l0.75,0.8l0.78,-0.83l0.7,0.7l-0.87,0.86c-0.08353,0.07231 -0.12801,0.17981 -0.12,0.29c0,0.68 0,1.37 0,2l0.71,0.44c0,0 0.09,0 0.12,0l1.78,-1c0.05968,-0.04425 0.10211,-0.10789 0.12,-0.18c0.1,-0.36 0.19,-0.73 0.29,-1.1c0.01,-0.19 0.02,-0.19 0.04,-0.26zM56.7,25.45c0.20953,0.00267 0.41153,-0.07801 0.56156,-0.2243c0.15003,-0.14628 0.2358,-0.34618 0.23844,-0.5557c0,-0.4363 -0.3537,-0.79 -0.79,-0.79c-0.4363,0 -0.79,0.3537 -0.79,0.79c0,0.43078 0.34922,0.78 0.78,0.78z" fill="#000000" stroke="#5e3023" stroke-width="0.5"></path><path d="M24.91,20.93l0.91,0.24l-0.28,1.09l1.08,0.29l-0.25,0.93c-0.34,-0.09 -0.67,-0.16 -1,-0.27c-0.23664,-0.09214 -0.50383,-0.05827 -0.71,0.09c-0.49,0.31 -1,0.58 -1.49,0.87c-0.09,0 -0.11,0.1 -0.1,0.2c0.01001,0.19654 0.01001,0.39346 0,0.59c-0.02313,0.07436 0.01065,0.15458 0.08,0.19l1.75,1c0.07117,0.02516 0.14883,0.02516 0.22,0l1.1,-0.29h0.13l0.25,0.91l-1.08,0.3l0.28,1.08l-0.92,0.25c-0.08,-0.31 -0.19,-0.62 -0.25,-0.93c-0.0372,-0.29336 -0.22766,-0.54478 -0.5,-0.66c-0.53,-0.27 -1,-0.59 -1.53,-0.87l-0.77,0.45c0,0.57 0,1.19 0,1.8c-0.02751,0.26158 0.08218,0.51879 0.29,0.68c0.25,0.22 0.47,0.47 0.7,0.69l-0.68,0.68l-0.76,-0.77l-0.78,0.78l-0.68,-0.7l0.36,-0.36l0.53,-0.52c0.03979,-0.04451 0.06432,-0.10057 0.07,-0.16c0,-0.72 0,-1.43 0,-2.13l-0.78,-0.44l-0.23,0.14l-1.51,0.92c-0.10257,0.05195 -0.1761,0.14754 -0.2,0.26c-0.09,0.39 -0.21,0.78 -0.31,1.19l-0.93,-0.25l0.29,-1.08l-1.08,-0.3l0.24,-0.92l0.38,0.1l0.87,0.23c0.06689,0.02953 0.14311,0.02953 0.21,0l1.74,-1c0.08,0 0.09,-0.09 0.09,-0.17c0,-0.08 0,-0.42 0,-0.63c0.01255,-0.07322 -0.02389,-0.14611 -0.09,-0.18l-1.73,-1c-0.07716,-0.03012 -0.16284,-0.03012 -0.24,0l-1.07,0.29h-0.16l-0.24,-0.91l1.08,-0.3l-0.29,-1.08l0.92,-0.25c0.1,0.36 0.21,0.71 0.29,1.06c0.03138,0.19724 0.15884,0.36594 0.34,0.45c0.53,0.29 1.05,0.6 1.57,0.91c0.06163,0.0484 0.14837,0.0484 0.21,0c0.16981,-0.15688 0.35395,-0.29749 0.55,-0.42c0.07,0 0.1,-0.07 0.1,-0.15c0,-0.68 0,-1.35 0,-2c-0.00757,-0.06978 -0.03538,-0.13582 -0.08,-0.19l-0.89,-0.88l0.68,-0.68l0.75,0.8l0.78,-0.83l0.7,0.7l-0.86,0.86c-0.08635,0.07024 -0.13147,0.17928 -0.12,0.29v2l0.7,0.44c0.03761,0.01957 0.08239,0.01957 0.12,0l1.79,-1c0.05336,-0.04805 0.09158,-0.1106 0.11,-0.18l0.3,-1.1c0.0005,-0.05144 0.01068,-0.10232 0.03,-0.15zM21.36,25.45c0.43801,0.00561 0.79908,-0.34209 0.81,-0.78c-0.00525,-0.43576 -0.35434,-0.78927 -0.79,-0.8c-0.43795,-0.00003 -0.79453,0.35208 -0.8,0.79c-0.00003,0.43243 0.34761,0.78453 0.78,0.79z" fill="#000000" stroke="#5e3023" stroke-width="0.5"></path><path d="M17.71,11.86c-1.27722,1.02867 -2.10536,2.51287 -2.31,4.14c-0.34,2 -1.4,2.81 -3.49,2.68c-0.62123,-0.04299 -1.24537,0.01099 -1.85,0.16c-2.5521,0.66077 -4.43051,2.82969 -4.72,5.45c-0.04493,0.39539 -0.04493,0.79461 0,1.19c0.28659,3.27362 3.13009,5.72231 6.41,5.52v0c3.43015,-3.52907 5.57795,-8.10636 6.1,-13c0.18418,-2.04543 0.13721,-4.10509 -0.14,-6.14z" fill="none" stroke="none" stroke-width="1"></path><path d="M18.65,31.09c2.6765,0.0747 5.3403,-0.39478 7.83,-1.38c9.58,-3.71 15.15,-13.88 13.76,-24.07v-0.24h-0.05c-1.05919,-0.06414 -2.12099,0.07155 -3.13,0.4c-2.78091,0.84686 -4.91401,3.09004 -5.62,5.91c-0.48,1.72 -1.51,2.55 -3,2.42c-0.81267,-0.13102 -1.5358,-0.59021 -2,-1.27c-0.86688,-1.09507 -2.07965,-1.86362 -3.44,-2.18c1.28,7.18 -0.31,13.99 -4.35,20.41z" fill="none" stroke="none" stroke-width="1"></path><path d="M16.28,36.42c0.80986,1.28233 2.08028,2.20562 3.55,2.58c2.3911,0.78117 5.0144,-0.04237 6.53,-2.05c0.60753,-0.94692 1.71978,-1.44213 2.83,-1.26c1.16364,0.25305 2.05293,1.19395 2.24,2.37c1.00128,3.69623 4.35555,6.26276 8.185,6.26276c3.82945,0 7.18372,-2.56652 8.185,-6.26276c0.17791,-1.17253 1.04733,-2.12099 2.2,-2.4c1.15481,-0.18535 2.30749,0.34362 2.92,1.34c1.55861,1.89587 4.09012,2.69183 6.45323,2.02903c2.36311,-0.6628 4.11144,-2.65915 4.45677,-5.08903c0.35,-2.26 1.17,-2.94 3.58,-2.94h0.59c2.25857,-0.0423 4.31539,-1.30965 5.36868,-3.30803c1.05329,-1.99837 0.93634,-4.41147 -0.30526,-6.29862c-1.2416,-1.88715 -3.41134,-2.94966 -5.66342,-2.77335c-2.24,0.16 -3.22,-0.61 -3.56,-2.83c-0.24802,-1.82073 -1.31669,-3.42742 -2.9,-4.36c-2.60261,-1.61633 -6.00035,-1.05147 -7.94,1.32c-0.48574,0.71563 -1.23895,1.20576 -2.09,1.36c-1.53,0.16 -2.57,-0.67 -3.07,-2.45c-0.26632,-0.92762 -0.68174,-1.80575 -1.23,-2.6c-0.32,6.59 -3.05,13.92 -7.27,18.08c-6.4,6.86 -14.1,9.95 -23.06,9.28z" fill="none" stroke="none" stroke-width="1"></path><path d="M78.84,21.86c-0.59,-2.8 -3.43,-5.65 -3.43,-5.65c-1.74938,-1.53103 -3.90766,-2.51807 -6.21,-2.84c-0.23,0 -0.51,-0.36 -0.62,-0.61c-2.16,-5.21 -6.58,-8.02 -12.21,-7.46c-1.66293,0.3114 -3.29571,0.76644 -4.88,1.36c-1.37318,-2.25196 -3.36595,-4.06073 -5.74,-5.21c0.33387,1.20751 0.58116,2.4373 0.74,3.68c0.13938,1.30515 0.17282,2.61945 0.1,3.93c0.54826,0.79425 0.96368,1.67238 1.23,2.6c0.5,1.78 1.54,2.61 3.07,2.45c0.85836,-0.14922 1.61962,-0.63988 2.11,-1.36c1.94805,-2.36139 5.34458,-2.91321 7.94,-1.29c1.58331,0.93258 2.65198,2.53927 2.9,4.36c0.34,2.22 1.32,3 3.56,2.83c2.30918,-0.28819 4.58529,0.74096 5.89417,2.66507c1.30888,1.92411 1.4301,4.41913 0.3139,6.46106c-1.1162,2.04193 -3.28182,3.28687 -5.60806,3.22388h-0.57c-2.4,-0.06 -3.23,0.65 -3.58,2.88c-0.31872,2.44981 -2.06361,4.47553 -4.43918,5.15365c-2.37557,0.67811 -4.92688,-0.12124 -6.49082,-2.03365c-0.62064,-0.98494 -1.77166,-1.50132 -2.92,-1.31c-1.15267,0.27901 -2.02209,1.22747 -2.2,2.4c-1.00128,3.69623 -4.35555,6.26276 -8.185,6.26276c-3.82945,0 -7.18372,-2.56652 -8.185,-6.26276c-0.18707,-1.17605 -1.07636,-2.11695 -2.24,-2.37c-1.11022,-0.18213 -2.22247,0.31308 -2.83,1.26c-1.52341,1.99664 -4.14528,2.80769 -6.53,2.02c-1.4681,-0.37192 -2.73826,-1.29144 -3.55,-2.57c-1.04209,-0.06735 -2.08008,-0.18751 -3.11,-0.36c-1.12795,-0.07137 -2.10043,-0.81852 -2.46,-1.89c-0.3414,-1.08593 0.00609,-2.27055 0.88,-3c0.05465,-0.07129 0.11484,-0.13816 0.18,-0.2v0c-3.26859,0.18543 -6.09353,-2.25871 -6.38,-5.52c-0.04493,-0.39539 -0.04493,-0.79461 0,-1.19c0.28949,-2.62031 2.1679,-4.78923 4.72,-5.45c0.60463,-0.14901 1.22877,-0.20299 1.85,-0.16c2.04,0.15 3.1,-0.66 3.44,-2.66c0.21694,-1.60914 1.04394,-3.07339 2.31,-4.09c-0.2666,-1.85037 -0.77076,-3.65862 -1.5,-5.38c-2.52846,1.39092 -4.49417,3.61826 -5.56,6.3c-0.16856,0.31329 -0.46356,0.5391 -0.81,0.62c-1.29262,0.20565 -2.54469,0.614 -3.71,1.21c-1.62398,0.85395 -3.00133,2.11078 -4,3.65c-0.16,0.24 -0.33,0.48 -0.48,0.75c-0.66461,1.39013 -1.21638,2.83144 -1.65,4.31v3c0.07205,0.12506 0.12593,0.25975 0.16,0.4c0.79962,4.85688 4.61144,8.66065 9.47,9.45c0.54884,0.06397 0.99976,0.46301 1.13,1c1.50706,4.04288 5.17783,6.88026 9.47,7.32c2.57312,0.31171 5.17625,-0.25189 7.39,-1.6c2.55347,4.18206 7.10002,6.73309 12,6.73309c4.89998,0 9.44653,-2.55103 12,-6.73309l0.32,0.15c2.96271,1.71919 6.53758,2.02818 9.75134,0.84284c3.21376,-1.18534 5.73183,-3.74161 6.86866,-6.97284c0.12055,-0.38658 0.47513,-0.65251 0.88,-0.66c3.25663,-0.4887 6.14843,-2.34775 7.94501,-5.1076c1.79658,-2.75985 2.32616,-6.15663 1.45499,-9.3324z" fill="#5e3023" stroke="none" stroke-width="1"></path><path d="M26.35,12.85c0.4642,0.67979 1.18733,1.13898 2,1.27c1.5,0.13 2.53,-0.7 3,-2.42c0.7115,-2.82733 2.85752,-5.0721 5.65,-5.91c1.00901,-0.32845 2.07081,-0.46414 3.13,-0.4h0.05c-0.24859,-1.84427 -0.71173,-3.65319 -1.38,-5.39c-0.5,0 -1,0.1 -1.35,0.17c-0.84,0.14 -1.39,0.29 -1.39,0.29c-1.67909,0.62367 -3.28523,1.42841 -4.79,2.4c-1.39609,1.17908 -2.69372,2.47003 -3.88,3.86h-0.11c-1.81371,-0.9675 -3.83445,-1.48212 -5.89,-1.5c0.29,0.77 0.57,1.55 0.81,2.36c0.32077,1.01861 0.58781,2.05337 0.8,3.1c1.32625,0.33219 2.5046,1.09548 3.35,2.17z" fill="#5e3023" stroke="none" stroke-width="1"></path><path d="M20.42,10.66c0.83519,-0.16571 1.69481,-0.16571 2.53,0c-0.1954,-1.04908 -0.44575,-2.08717 -0.75,-3.11c-0.2,-0.79 -0.52,-1.55 -0.81,-2.34c-1.8047,-0.00801 -3.58366,0.42815 -5.18,1.27c0.72924,1.72138 1.2334,3.52963 1.5,5.38c0.79324,-0.61286 1.72305,-1.02459 2.71,-1.2z" fill="#5e3023" stroke="none" stroke-width="1"></path><path d="M11.77,31c-0.06516,0.06184 -0.12535,0.12871 -0.18,0.2c-0.87391,0.72945 -1.2214,1.91407 -0.88,3c0.35957,1.07148 1.33205,1.81863 2.46,1.89c1.02992,0.17249 2.06791,0.29265 3.11,0.36c-0.46087,-0.78095 -0.75378,-1.64944 -0.86,-2.55c-0.25,-2.03 -1.42,-3.02 -3.65,-2.9z" fill="#5e3023" stroke="none" stroke-width="1"></path><path d="M42.17,0.23c-1.10589,-0.24212 -2.24147,-0.31963 -3.37,-0.23c0.67927,1.73876 1.1525,3.55111 1.41,5.4c2.07865,0.13699 4.03201,1.04238 5.48,2.54c0.33231,0.34618 0.63347,0.72096 0.9,1.12c0.07282,-1.31055 0.03938,-2.62485 -0.1,-3.93c-0.15884,-1.2427 -0.40613,-2.47249 -0.74,-3.68c-0.74919,-0.36678 -1.52878,-0.66791 -2.33,-0.9c-0.42,-0.12 -0.82,-0.23 -1.25,-0.32z" fill="#5e3023" stroke="none" stroke-width="1"></path></g></g></g></g></svg>