<svg version="1.1" xmlns="http://www.w3.org/2000/svg" xmlns:xlink="http://www.w3.org/1999/xlink" width="81.16px" height="68.97px" viewBox="0,0,256,217.54688"><g fill="none" fill-rule="nonzero" stroke="none" stroke-width="none" stroke-linecap="butt" stroke-linejoin="miter" stroke-miterlimit="10" stroke-dasharray="" stroke-dashoffset="0" font-family="none" font-weight="none" font-size="none" text-anchor="none" style="mix-blend-mode: normal"><g transform="translate(0.00585,-0.1157) scale(3.15426,3.15426)"><g id="Layer_2"><g id="Layer_1-2"><path d="M48.22,37.39l1.65,0.44l-0.51,2l2,0.54l-0.49,1.63c-0.61,-0.16 -1.21,-0.29 -1.78,-0.48c-0.42596,-0.16905 -0.90876,-0.1087 -1.28,0.16c-0.88,0.56 -1.79,1.06 -2.69,1.57c-0.14133,0.05906 -0.22099,0.20999 -0.19,0.36c0.02499,0.35957 0.02499,0.72043 0,1.08c0,0.16 0,0.25 0.16,0.34l3.15,1.81c0.12954,0.04496 0.27046,0.04496 0.4,0c0.66,-0.16 1.32,-0.35 2,-0.52l0.24,-0.05l0.44,1.73l-2,0.53l0.51,2l-1.66,0.45c-0.15,-0.57 -0.35,-1.12 -0.44,-1.68c-0.03195,-0.55932 -0.36513,-1.05717 -0.87,-1.3c-1,-0.5 -1.88,-1.07 -2.77,-1.58l-1.4,0.81c0,1 0,2.15 0,3.26c-0.04949,0.47497 0.14653,0.9424 0.52,1.24c0.45,0.38 0.85,0.84 1.26,1.24l-1.22,1.23l-1.38,-1.41l-1.4,1.41l-1.25,-1.2c0.19,-0.18 0.43,-0.4 0.66,-0.64c0.23,-0.24 0.64,-0.63 0.95,-1c0.07801,-0.07813 0.12734,-0.18032 0.14,-0.29c0,-1.29 0,-2.58 0,-3.83l-1.4,-0.81l-0.43,0.25l-2.74,1.59c-0.18932,0.0911 -0.3259,0.26459 -0.37,0.47c-0.17,0.71 -0.37,1.41 -0.57,2.15l-1.66,-0.45l0.51,-2l-2,-0.54l0.44,-1.65l0.69,0.17c0.52,0.14 1,0.29 1.57,0.42c0.12527,0.02971 0.25711,0.0119 0.37,-0.05l3.2,-1.79c0.12341,-0.05424 0.19065,-0.18872 0.16,-0.32c-0.02,-0.3764 -0.02,-0.7536 0,-1.13c0.03065,-0.13128 -0.03659,-0.26576 -0.16,-0.32c-1,-0.59 -2.08,-1.2 -3.13,-1.79c-0.13151,-0.07154 -0.28559,-0.08945 -0.43,-0.05c-0.64,0.15 -1.28,0.34 -1.93,0.51l-0.29,0.1l-0.44,-1.65l2,-0.53l-0.51,-2l1.66,-0.45c0.18,0.65 0.37,1.28 0.51,1.92c0.06247,0.35185 0.28909,0.65278 0.61,0.81c1,0.52 1.91,1.08 2.86,1.64c0.10731,0.0889 0.26269,0.0889 0.37,0c0.31814,-0.21259 0.65251,-0.39983 1,-0.56c0.14,-0.07 0.19,-0.13 0.19,-0.27c0,-1.22 0,-2.45 0,-3.67c-0.01091,-0.12883 -0.06768,-0.24948 -0.16,-0.34c-0.53,-0.54 -1.08,-1.08 -1.6,-1.59l1.23,-1.22l1.36,1.43l1.33,-1.52l1.26,1.26l-1.56,1.55c-0.14996,0.12987 -0.23122,0.32194 -0.22,0.52c0,1.24 0,2.48 0,3.65l1.27,0.8c0.07383,0.02949 0.15617,0.02949 0.23,0l3.22,-1.87c0.10451,-0.07333 0.17626,-0.18456 0.2,-0.31c0.19,-0.66 0.36,-1.32 0.54,-2c0.01,-0.05 0.04,-0.11 0.07,-0.21zM41.82,45.57c0.78974,0.0055 1.43441,-0.63024 1.43993,-1.41998c0.00552,-0.78974 -0.63021,-1.43442 -1.41995,-1.43995c-0.78974,-0.00553 -1.43443,0.63019 -1.43998,1.41993c0.00525,0.78535 0.6348,1.42377 1.42,1.44z" fill="#000000" stroke="#5e3023" stroke-width="0.5"></path><path d="M62.17,40.23l0.91,0.25l-0.28,1.08l1.08,0.3l-0.25,0.92c-0.34,-0.09 -0.67,-0.16 -1,-0.27c-0.23728,-0.08675 -0.50187,-0.05321 -0.71,0.09c-0.49,0.31 -1,0.59 -1.49,0.87c-0.07866,0.03228 -0.12137,0.11771 -0.1,0.2c0,0.2 0,0.4 0,0.6c-0.01916,0.07412 0.01359,0.15191 0.08,0.19l1.75,1c0.07117,0.02516 0.14883,0.02516 0.22,0l1.1,-0.29h0.13l0.25,0.92l-1.08,0.29l0.28,1.09l-0.92,0.25c-0.08,-0.32 -0.19,-0.62 -0.25,-0.94c-0.0345,-0.29211 -0.22651,-0.54173 -0.5,-0.65c-0.53,-0.28 -1,-0.59 -1.53,-0.88l-0.77,0.45c0,0.58 0,1.19 0,1.8c-0.02533,0.26411 0.0836,0.52329 0.29,0.69c0.25,0.21 0.47,0.46 0.7,0.69l-0.68,0.68l-0.76,-0.78l-0.78,0.78l-0.68,-0.7l0.36,-0.35l0.53,-0.53c0.04108,-0.04367 0.06581,-0.10019 0.07,-0.16c0,-0.71 0,-1.43 0,-2.12l-0.78,-0.45l-0.23,0.14l-1.53,0.88c-0.10457,0.04949 -0.17898,0.14623 -0.2,0.26c-0.09,0.39 -0.21,0.78 -0.32,1.18l-0.92,-0.24l0.29,-1.09l-1.08,-0.29l0.24,-0.92l0.38,0.1l0.87,0.23c0.06853,0.02028 0.14147,0.02028 0.21,0l1.74,-1c0.06611,-0.03389 0.10255,-0.10678 0.09,-0.18c0,-0.20667 0,-0.41667 0,-0.63c0,-0.08 0,-0.13 -0.09,-0.17l-1.73,-1c-0.07801,-0.02523 -0.16199,-0.02523 -0.24,0c-0.36,0.08 -0.71,0.19 -1.07,0.28h-0.16l-0.24,-0.91l1.08,-0.29l-0.29,-1.09l0.92,-0.25c0.1,0.36 0.21,0.71 0.29,1.06c0.02598,0.19949 0.1552,0.37051 0.34,0.45c0.53,0.29 1.05,0.6 1.57,0.91c0.06163,0.0484 0.14837,0.0484 0.21,0c0.17627,-0.11838 0.35998,-0.22526 0.55,-0.32c0.06386,-0.01478 0.10673,-0.0748 0.1,-0.14c0,-0.68 0,-1.36 0,-2c-0.00569,-0.07025 -0.03373,-0.13684 -0.08,-0.19l-0.89,-0.89l0.68,-0.67l0.75,0.79l0.78,-0.82l0.7,0.7l-0.86,0.85c-0.08489,0.07132 -0.12968,0.17955 -0.12,0.29v2c0.25,0.16 0.47,0.31 0.7,0.44c0.03761,0.01957 0.08239,0.01957 0.12,0c0.6,-0.34 1.2,-0.68 1.79,-1c0.05308,-0.04418 0.09145,-0.10348 0.11,-0.17l0.3,-1.1c-0.00185,-0.07635 0.01533,-0.15195 0.05,-0.22zM58.62,44.76c0.4363,0 0.79,-0.3537 0.79,-0.79c0,-0.4363 -0.3537,-0.79 -0.79,-0.79c-0.21125,-0.00267 -0.41477,0.07938 -0.56509,0.22782c-0.15032,0.14844 -0.23493,0.35091 -0.23491,0.56218c0.00547,0.43792 0.36205,0.79003 0.8,0.79z" fill="#000000" stroke="#5e3023" stroke-width="0.5"></path><path d="M26.83,40.23l0.92,0.25l-0.29,1.08l1.08,0.3l-0.24,0.92c-0.34,-0.09 -0.67,-0.16 -1,-0.27c-0.23728,-0.08675 -0.50187,-0.05321 -0.71,0.09c-0.48,0.31 -1,0.59 -1.49,0.87c-0.07572,0.03537 -0.11714,0.1182 -0.1,0.2c0.01502,0.19972 0.01502,0.40028 0,0.6c0,0.08 0,0.14 0.09,0.19l1.74,1c0.07117,0.02516 0.14883,0.02516 0.22,0l1.1,-0.29h0.14l0.24,0.92l-1.08,0.29l0.29,1.09l-0.92,0.25c-0.10195,-0.30808 -0.18543,-0.62197 -0.25,-0.94c-0.0424,-0.28883 -0.23171,-0.53494 -0.5,-0.65c-0.53,-0.28 -1,-0.59 -1.53,-0.88l-0.78,0.45c0,0.58 0,1.19 0,1.8c-0.02533,0.26411 0.0836,0.52329 0.29,0.69c0.25,0.21 0.47,0.46 0.7,0.69l-0.68,0.68l-0.76,-0.78l-0.77,0.78l-0.69,-0.7l0.36,-0.35l0.53,-0.53c0.04407,-0.04269 0.07229,-0.09913 0.08,-0.16v-2.13l-0.77,-0.45l-0.24,0.14l-1.52,0.88c-0.10457,0.04949 -0.17898,0.14623 -0.2,0.26c-0.1,0.39 -0.21,0.78 -0.32,1.18l-0.92,-0.24l0.28,-1.09l-1.08,-0.29l0.24,-0.92l0.39,0.1l0.87,0.23c0.06516,0.02005 0.13484,0.02005 0.2,0l1.75,-1c0.06482,-0.03453 0.0978,-0.10875 0.08,-0.18c0,-0.20667 0,-0.41667 0,-0.63c0.01984,-0.07157 -0.01966,-0.14617 -0.09,-0.17l-1.73,-1c-0.0746,-0.02515 -0.1554,-0.02515 -0.23,0c-0.36,0.08 -0.72,0.19 -1.07,0.28h-0.17l-0.24,-0.91l1.08,-0.29l-0.28,-1.09l0.92,-0.25c0.1,0.36 0.2,0.71 0.28,1.06c0.03302,0.19653 0.15996,0.36455 0.34,0.45c0.53,0.29 1.05,0.6 1.58,0.91c0.08,0.05 0.12,0 0.2,0c0.17759,-0.11624 0.36118,-0.22306 0.55,-0.32c0.06386,-0.01478 0.10673,-0.0748 0.1,-0.14v-2c-0.00418,-0.07262 -0.03646,-0.14076 -0.09,-0.19l-0.88,-0.89l0.67,-0.67l0.75,0.79l0.79,-0.82l0.69,0.7c-0.28,0.28 -0.56,0.57 -0.86,0.85c-0.08225,0.07323 -0.12646,0.18007 -0.12,0.29v2l0.7,0.44c0.04108,0.01975 0.08892,0.01975 0.13,0l1.78,-1c0.05659,-0.04096 0.09582,-0.1016 0.11,-0.17c0.11,-0.37 0.2,-0.74 0.3,-1.1zM23.29,44.76c0.4363,0 0.79,-0.3537 0.79,-0.79c0,-0.4363 -0.3537,-0.79 -0.79,-0.79c-0.4363,0 -0.79,0.3537 -0.79,0.79c0,0.4363 0.3537,0.79 0.79,0.79z" fill="#000000" stroke="#5e3023" stroke-width="0.5"></path><path d="M19.63,31.16c-1.26233,1.01834 -2.08561,2.48236 -2.3,4.09c-0.33,2.09 -1.33,2.86 -3.5,2.75c-0.6174,-0.04522 -1.23808,0.00538 -1.84,0.15c-2.55288,0.66231 -4.4336,2.82932 -4.73,5.45c-0.03998,0.39232 -0.03998,0.78768 0,1.18c0.28143,3.26387 3.10958,5.7108 6.38,5.52v0c3.43403,-3.52639 5.58249,-8.10509 6.1,-13c0.19395,-2.04431 0.15705,-4.10395 -0.11,-6.14z" fill="none" stroke="none" stroke-width="1"></path><path d="M20.57,50.4c2.67756,0.0642 5.34058,-0.41195 7.83,-1.4c9.6,-3.69 15.16,-13.87 13.77,-24c0,-0.09 0,-0.17 0,-0.25h-0.05c-4.03687,-0.24883 -7.69932,2.35531 -8.79,6.25c-0.48,1.72 -1.5,2.54 -3,2.41c-0.81267,-0.13102 -1.5358,-0.59021 -2,-1.27c-0.87354,-1.0845 -2.09031,-1.83924 -3.45,-2.14c1.32,7.16 -0.26,14 -4.31,20.4z" fill="none" stroke="none" stroke-width="1"></path><path d="M18.21,55.73c0.80281,1.28063 2.07235,2.19871 3.54,2.56c2.38039,0.79846 5.00505,-0.00542 6.53,-2c0.60104,-0.96208 1.72004,-1.47036 2.84,-1.29c1.15965,0.25017 2.04587,1.18805 2.23,2.36c1.00845,3.69214 4.36262,6.25304 8.19,6.25304c3.82738,0 7.18155,-2.5609 8.19,-6.25304c0.17271,-1.17501 1.04441,-2.12595 2.2,-2.4c1.13963,-0.20139 2.28831,0.30387 2.91,1.28c1.56281,1.8869 4.09023,2.67651 6.44925,2.01486c2.35902,-0.66165 4.10716,-2.65045 4.46075,-5.07486c0.35,-2.23 1.19,-2.94 3.58,-2.89c0.1,0 0.34,0 0.58,0c2.37018,0.14343 4.61352,-1.08163 5.77413,-3.15319c1.1606,-2.07156 1.03389,-4.62446 -0.32614,-6.5709c-1.36003,-1.94645 -3.71366,-2.94334 -6.05799,-2.56591c-2.24,0.16 -3.22,-0.62 -3.56,-2.84c-0.24866,-1.81519 -1.31304,-3.41729 -2.89,-4.35c-2.60686,-1.6568 -6.04022,-1.10746 -8,1.28c-0.48624,0.71696 -1.23859,1.21013 -2.09,1.37c-1.52,0.16 -2.57,-0.68 -3.06,-2.45c-0.26429,-0.92839 -0.67987,-1.80684 -1.23,-2.6c-0.33,6.58 -3.05,13.91 -7.28,18.07c-6.33,6.85 -14.02,9.91 -22.98,9.25z" fill="none" stroke="none" stroke-width="1"></path><path d="M29.32,26.07c1.18021,-1.39531 2.47469,-2.68979 3.87,-3.87c1.51062,-0.97103 3.1237,-1.77254 4.81,-2.39c0.45409,-0.12548 0.9148,-0.22563 1.38,-0.3c0.39,-0.06 0.86,-0.12 1.36,-0.16c-2.43,-6.18 -8,-12.13 -19.93,-13.53c-1.94142,-0.23504 -3.90925,-0.11988 -5.81,0.34c-2.3999,0.55716 -4.68192,1.53565 -6.74,2.89c7.22,3.28 12.31,8.38 15.05,15.46c2.05426,0.01833 4.07413,0.5293 5.89,1.49z" fill="none" stroke="none" stroke-width="1"></path><path d="M23.31,24.51c-2.74,-7.08 -7.83,-12.18 -15,-15.46c2.04285,-1.34897 4.3075,-2.32727 6.69,-2.89c1.89431,-0.45749 3.85516,-0.57263 5.79,-0.34c11.92,1.4 17.5,7.35 19.93,13.53c1.12656,-0.10276 2.26213,-0.03874 3.37,0.19c0.43,0.09 0.84,0.2 1.25,0.32c0.79798,0.23211 1.57425,0.53325 2.32,0.9c-1.91867,-7.08627 -6.47729,-13.1692 -12.74,-17c-10.88851,-6.11462 -24.47954,-4.49808 -33.63,4l-0.14,0.13c-0.06,0 -0.17,0.17 -0.29,0.3c-0.48105,0.49016 -0.78386,1.12746 -0.86,1.81c-0.0374,0.44171 0.03831,0.88566 0.22,1.29c0.46,1 1.36,1.41 2.61,1.69c2.31549,0.52015 4.51767,1.45523 6.5,2.76c3.87519,2.41061 6.93737,5.92916 8.79,10.1c1.59394,-0.86431 3.37682,-1.32119 5.19,-1.33z" fill="#5e3023" stroke="none" stroke-width="1"></path><path d="M80.76,41.17c-0.58,-2.81 -3.43,-5.66 -3.43,-5.66c-1.74398,-1.53161 -3.9003,-2.51586 -6.2,-2.83c-0.24,0 -0.52,-0.36 -0.63,-0.62c-2.16,-5.21 -6.61,-8 -12.2,-7.45c-1.66743,0.31979 -3.30367,0.7849 -4.89,1.39c-1.36785,-2.25636 -3.36208,-4.06646 -5.74,-5.21c0.34532,1.20475 0.59279,2.43541 0.74,3.68c0.13795,1.3052 0.17472,2.61912 0.11,3.93c0.55013,0.79316 0.96571,1.67161 1.23,2.6c0.49,1.77 1.54,2.61 3.06,2.45c0.85141,-0.15987 1.60376,-0.65304 2.09,-1.37c1.95978,-2.38746 5.39314,-2.9368 8,-1.28c1.57696,0.93271 2.64134,2.53481 2.89,4.35c0.34,2.22 1.32,3 3.56,2.84c3.41588,-0.16845 6.32155,2.46412 6.49,5.88c0.16845,3.41588 -2.46412,6.32155 -5.88,6.49c-0.24,0 -0.48,0 -0.58,0c-2.39,0 -3.23,0.66 -3.58,2.89c-0.35359,2.42441 -2.10173,4.41321 -4.46075,5.07486c-2.35902,0.66165 -4.88644,-0.12796 -6.44925,-2.01486c-0.62086,-1.00672 -1.79737,-1.52741 -2.96,-1.31c-1.15559,0.27405 -2.02729,1.22499 -2.2,2.4c-1.00845,3.69214 -4.36262,6.25304 -8.19,6.25304c-3.82738,0 -7.18155,-2.5609 -8.19,-6.25304c-0.16887,-1.18735 -1.05823,-2.14451 -2.23,-2.4c-1.11142,-0.18842 -2.22826,0.30315 -2.84,1.25c-1.52495,1.99458 -4.14961,2.79846 -6.53,2c-1.46765,-0.36129 -2.73719,-1.27937 -3.54,-2.56c-1,-0.08 -2.06,-0.19 -3.12,-0.36c-1.12624,-0.06993 -2.09648,-0.8184 -2.45,-1.89c-0.33811,-1.08398 0.00441,-2.26509 0.87,-3l0.18,-0.2v0c-3.27042,0.1908 -6.09857,-2.25613 -6.38,-5.52c-0.03998,-0.39232 -0.03998,-0.78768 0,-1.18c0.30991,-2.59063 2.1683,-4.73036 4.69,-5.4c0.59921,-0.14024 1.21643,-0.18746 1.83,-0.14c2.13,0.12 3.15,-0.65 3.5,-2.74c0.21439,-1.60764 1.03767,-3.07166 2.3,-4.09c-0.26524,-1.84743 -0.76947,-3.65254 -1.5,-5.37c-2.52793,1.39158 -4.49345,3.6187 -5.56,6.3c-0.17072,0.30948 -0.4654,0.5314 -0.81,0.61c-1.29076,0.21332 -2.54167,0.6213 -3.71,1.21c-1.62243,0.85615 -2.99928,2.11253 -4,3.65c-0.17,0.25 -0.33,0.49 -0.48,0.75c-0.66194,1.40732 -1.21036,2.8653 -1.64,4.36v3c0.06937,0.13105 0.12628,0.26832 0.17,0.41c0.80227,4.84995 4.60836,8.64799 9.46,9.44c0.54884,0.06397 0.99976,0.46301 1.13,1c1.51885,4.03419 5.18327,6.86666 9.47,7.32c2.57399,0.30324 5.17543,-0.26351 7.39,-1.61c2.55711,4.17709 7.10236,6.72392 12,6.72392c4.89764,0 9.44289,-2.54683 12,-6.72392l0.31,0.16c2.96972,1.71807 6.55068,2.02307 9.76818,0.83197c3.2175,-1.19109 5.73667,-3.75431 6.87182,-6.99197c0.11671,-0.38502 0.46777,-0.65134 0.87,-0.66c3.24947,-0.48948 6.13478,-2.34455 7.92884,-5.09773c1.79406,-2.75318 2.32578,-6.14192 1.46116,-9.31227z" fill="#5e3023" stroke="none" stroke-width="1"></path><path d="M28.28,32.15c0.4642,0.67979 1.18733,1.13898 2,1.27c1.5,0.13 2.52,-0.69 3,-2.41c1.06033,-3.90719 4.70755,-6.54153 8.75,-6.32h0.05c-0.25826,-1.83146 -0.72806,-3.62679 -1.4,-5.35c-0.5,0 -1,0.1 -1.36,0.16c-0.4652,0.07437 -0.92591,0.17452 -1.38,0.3c-1.68285,0.61813 -3.29254,1.41962 -4.8,2.39c-1.39531,1.18021 -2.68979,2.47469 -3.87,3.87l-0.07,-0.06c-1.81499,-0.96418 -3.83491,-1.47859 -5.89,-1.5c0.3,0.77 0.58,1.55 0.82,2.37c0.30609,1.02909 0.55645,2.07394 0.75,3.13c1.34291,0.31381 2.54078,1.07128 3.4,2.15z" fill="#5e3023" stroke="none" stroke-width="1"></path><path d="M22.34,30c0.83756,-0.17558 1.70244,-0.17558 2.54,0c-0.19425,-1.04932 -0.44461,-2.08748 -0.75,-3.11c-0.24,-0.82 -0.52,-1.6 -0.82,-2.37c-1.80555,-0.00493 -3.58455,0.43467 -5.18,1.28c0.73053,1.71746 1.23476,3.52257 1.5,5.37c0.79351,-0.60669 1.72427,-1.00853 2.71,-1.17z" fill="#5e3023" stroke="none" stroke-width="1"></path><path d="M13.69,50.3l-0.18,0.2c-0.86559,0.73491 -1.20811,1.91602 -0.87,3c0.35352,1.0716 1.32376,1.82007 2.45,1.89c1.06,0.17 2.09,0.28 3.12,0.36c-0.46951,-0.7806 -0.76301,-1.65426 -0.86,-2.56c-0.26,-2.01 -1.42,-3 -3.66,-2.89z" fill="#5e3023" stroke="none" stroke-width="1"></path><path d="M44.1,19.54c-1.10787,-0.22874 -2.24344,-0.29276 -3.37,-0.19c0.67194,1.72321 1.14174,3.51854 1.4,5.35c2.07745,0.14168 4.0292,1.04632 5.48,2.54c0.33325,0.35156 0.63757,0.72946 0.91,1.13c0.06472,-1.31088 0.02795,-2.6248 -0.11,-3.93c-0.14721,-1.24459 -0.39468,-2.47525 -0.74,-3.68c-0.74575,-0.36675 -1.52202,-0.66789 -2.32,-0.9c-0.41,-0.12 -0.82,-0.23 -1.25,-0.32z" fill="#5e3023" stroke="none" stroke-width="1"></path></g></g></g></g></svg>