<svg version="1.1" xmlns="http://www.w3.org/2000/svg" xmlns:xlink="http://www.w3.org/1999/xlink" width="79.24px" height="76.57px" viewBox="0,0,256,247.35938"><g fill="#5e3023" fill-rule="nonzero" stroke="none" stroke-width="none" stroke-linecap="butt" stroke-linejoin="miter" stroke-miterlimit="10" stroke-dasharray="" stroke-dashoffset="0" font-family="none" font-weight="none" font-size="none" text-anchor="none" style="mix-blend-mode: normal"><g transform="translate(-0.01691,0.41643) scale(3.23069,3.23069)"><g id="Layer_2"><g id="Layer_1-2"><path d="M78.84,21.86c-0.59,-2.8 -3.43,-5.65 -3.43,-5.65c-1.74938,-1.53103 -3.90766,-2.51807 -6.21,-2.84c-0.23,0 -0.51,-0.36 -0.62,-0.61c-2.16,-5.21 -6.58,-8.02 -12.21,-7.46c-1.66293,0.3114 -3.29571,0.76644 -4.88,1.36c-1.37318,-2.25196 -3.36595,-4.06073 -5.74,-5.21c-0.74919,-0.36678 -1.52878,-0.66791 -2.33,-0.9c-0.42,-0.12 -0.82,-0.23 -1.25,-0.32c-1.10589,-0.24212 -2.24147,-0.31963 -3.37,-0.23c-0.5,0 -1,0.1 -1.35,0.17c-0.84,0.14 -1.39,0.29 -1.39,0.29c-1.67909,0.62367 -3.28523,1.42841 -4.79,2.4c-1.39609,1.17908 -2.69372,2.47003 -3.88,3.86h-0.11c-1.81371,-0.9675 -3.83445,-1.48212 -5.89,-1.5c-1.8047,-0.00801 -3.58366,0.42815 -5.18,1.27c-2.52846,1.39092 -4.49417,3.61826 -5.56,6.3c-0.16856,0.31329 -0.46356,0.5391 -0.81,0.62c-1.29262,0.20565 -2.54469,0.614 -3.71,1.21c-1.62398,0.85395 -3.00133,2.11078 -4,3.65c-0.16,0.24 -0.33,0.48 -0.48,0.75c-0.66661,1.40304 -1.21842,2.85781 -1.65,4.35v3c0.07205,0.12506 0.12593,0.25975 0.16,0.4c0.79962,4.85688 4.61144,8.66065 9.47,9.45c0.54884,0.06397 0.99976,0.46301 1.13,1c1.50706,4.04288 5.17783,6.88026 9.47,7.32c2.57312,0.31171 5.17625,-0.25189 7.39,-1.6c2.55347,4.18206 7.10002,6.73309 12,6.73309c4.89998,0 9.44653,-2.55103 12,-6.73309l0.32,0.15c2.96271,1.71919 6.53758,2.02818 9.75134,0.84284c3.21376,-1.18534 5.73183,-3.74161 6.86866,-6.97284c0.12055,-0.38658 0.47513,-0.65251 0.88,-0.66c3.25663,-0.4887 6.14843,-2.34775 7.94501,-5.1076c1.79658,-2.75985 2.32616,-6.15663 1.45499,-9.3324zM68,31h-0.57c-2.4,-0.06 -3.23,0.65 -3.58,2.88c-0.31872,2.44981 -2.06361,4.47553 -4.43918,5.15365c-2.37557,0.67811 -4.92688,-0.12124 -6.49082,-2.03365c-0.62064,-0.98494 -1.77166,-1.50132 -2.92,-1.31c-1.15267,0.27901 -2.02209,1.22747 -2.2,2.4c-1.00128,3.69623 -4.35555,6.26276 -8.185,6.26276c-3.82945,0 -7.18372,-2.56652 -8.185,-6.26276c-0.18707,-1.17605 -1.07636,-2.11695 -2.24,-2.37c-1.11022,-0.18213 -2.22247,0.31308 -2.83,1.26c-1.52341,1.99664 -4.14528,2.80769 -6.53,2.02c-1.4681,-0.37192 -2.73826,-1.29144 -3.55,-2.57c-0.46087,-0.78095 -0.75378,-1.64944 -0.86,-2.55c-0.25,-2 -1.42,-3 -3.65,-2.87v0c-3.26859,0.18543 -6.09353,-2.25871 -6.38,-5.52c-0.04493,-0.39539 -0.04493,-0.79461 0,-1.19c0.28949,-2.62031 2.1679,-4.78923 4.72,-5.45c0.60463,-0.14901 1.22877,-0.20299 1.85,-0.16c2.04,0.12 3.1,-0.69 3.44,-2.69c0.21694,-1.60914 1.04394,-3.07339 2.31,-4.09c0.79324,-0.61286 1.72305,-1.02459 2.71,-1.2c0.83519,-0.16571 1.69481,-0.16571 2.53,0c1.34444,0.322 2.54178,1.08619 3.4,2.17c0.4642,0.67979 1.18733,1.13898 2,1.27c1.5,0.13 2.53,-0.7 3,-2.42c0.70222,-2.83882 2.84985,-5.09668 5.65,-5.94c1.00901,-0.32845 2.07081,-0.46414 3.13,-0.4h0.05c2.07865,0.13699 4.03201,1.04238 5.48,2.54c0.33231,0.34618 0.63347,0.72096 0.9,1.12c0.54826,0.79425 0.96368,1.67238 1.23,2.6c0.5,1.78 1.54,2.61 3.07,2.45c0.86766,-0.13914 1.64076,-0.62685 2.14,-1.35c1.94805,-2.36139 5.34458,-2.91321 7.94,-1.29c1.58331,0.93258 2.65198,2.53927 2.9,4.36c0.34,2.22 1.32,3 3.56,2.83c2.30918,-0.28819 4.58529,0.74096 5.89417,2.66507c1.30888,1.92411 1.4301,4.41913 0.3139,6.46106c-1.1162,2.04193 -3.28182,3.28687 -5.60806,3.22388z" stroke="none" stroke-width="1"></path><path d="M49.68,75.67c2.34,-2.51 9.59,-10.33 9.59,-10.33v0c1.67,-1.79 3.27,-3.53 4.89,-5.26c0.59205,-0.4521 0.78789,-1.25631 0.47,-1.93c-0.34144,-0.65973 -1.08574,-1.00515 -1.81,-0.84l-1.7,0.13l0.4,-0.82c1.06,-2 2.11667,-4.03333 3.17,-6.1c0.72,-1.38 0.09,-2.43 -1.44,-2.43c-3.66,0 -7.31,0 -11,0c-0.75801,-0.06674 -1.46979,0.37253 -1.75,1.08c-2,4.19 -4.08,8.37 -6.1,12.56c-0.34446,0.49287 -0.36366,1.14314 -0.04888,1.65547c0.31478,0.51233 0.90354,0.78907 1.49888,0.70453c1.45,0 2.91,0 4.42,0c-0.24,0.75 -0.43,1.44 -0.69,2.11l-1.35,4.1c-0.49,1.5 -1,2.86 -1.34,4.26c-0.07671,0.52345 0.08889,1.05337 0.45,1.44c0.43404,0.28366 0.95733,0.39757 1.47,0.32c0.31,-0.03 0.62,-0.39 0.87,-0.65zM48.12,61.12c0.08,-0.21 0.13,-0.39 0.21,-0.55c1.45,-3 2.89,-6 4.37,-9c0.12854,-0.26338 0.36614,-0.45712 0.65,-0.53c2.52,0 5,0 7.71,0c-1,1.82 -1.84,3.52 -2.72,5.22c-0.33,0.63 -0.67,1.26 -1,1.9c-0.36887,0.49545 -0.39631,1.16636 -0.06914,1.69028c0.32717,0.52392 0.94206,0.79372 1.54914,0.67972h0.83l-7.46,8l-0.15,-0.08c0.12,-0.39 0.23,-0.79 0.35,-1.17c0.45,-1.36 0.91,-2.71 1.34,-4.07c0.23972,-0.49392 0.18633,-1.07996 -0.1387,-1.52242c-0.32503,-0.44247 -0.86829,-0.66865 -1.4113,-0.58758z" stroke="#5e3023" stroke-width="0.5"></path></g></g></g></g></svg>