<svg version="1.1" xmlns="http://www.w3.org/2000/svg" xmlns:xlink="http://www.w3.org/1999/xlink" width="81.16px" height="95.38px" viewBox="0,0,217.82813,256"><g fill="none" fill-rule="nonzero" stroke="none" stroke-width="none" stroke-linecap="butt" stroke-linejoin="miter" stroke-miterlimit="10" stroke-dasharray="" stroke-dashoffset="0" font-family="none" font-weight="none" font-size="none" text-anchor="none" style="mix-blend-mode: normal"><g transform="translate(0.00229,0.21465) scale(2.684,2.684)"><g id="Layer_2"><g id="Layer_1-2"><path d="M19.63,31.16c-1.26233,1.01834 -2.08561,2.48236 -2.3,4.09c-0.33,2.09 -1.33,2.86 -3.5,2.75c-0.6174,-0.04522 -1.23808,0.00538 -1.84,0.15c-2.55288,0.66231 -4.4336,2.82932 -4.73,5.45c-0.03998,0.39232 -0.03998,0.78768 0,1.18c0.28143,3.26387 3.10958,5.7108 6.38,5.52v0c3.43403,-3.52639 5.58249,-8.10509 6.1,-13c0.19395,-2.04431 0.15705,-4.10395 -0.11,-6.14z" fill="none" stroke="none" stroke-width="1"></path><path d="M20.57,50.4c2.67756,0.0642 5.34058,-0.41195 7.83,-1.4c9.6,-3.69 15.16,-13.87 13.77,-24c0,-0.09 0,-0.17 0,-0.25h-0.05c-4.03687,-0.24883 -7.69932,2.35531 -8.79,6.25c-0.48,1.72 -1.5,2.54 -3,2.41c-0.81267,-0.13102 -1.5358,-0.59021 -2,-1.27c-0.87354,-1.0845 -2.09031,-1.83924 -3.45,-2.14c1.32,7.16 -0.26,14 -4.31,20.4z" fill="none" stroke="none" stroke-width="1"></path><path d="M18.21,55.73c0.80281,1.28063 2.07235,2.19871 3.54,2.56c2.38039,0.79846 5.00505,-0.00542 6.53,-2c0.60104,-0.96208 1.72004,-1.47036 2.84,-1.29c1.15965,0.25017 2.04587,1.18805 2.23,2.36c1.00845,3.69214 4.36262,6.25304 8.19,6.25304c3.82738,0 7.18155,-2.5609 8.19,-6.25304c0.17271,-1.17501 1.04441,-2.12595 2.2,-2.4c1.13963,-0.20139 2.28831,0.30387 2.91,1.28c1.56281,1.8869 4.09023,2.67651 6.44925,2.01486c2.35902,-0.66165 4.10716,-2.65045 4.46075,-5.07486c0.35,-2.23 1.19,-2.94 3.58,-2.89c0.1,0 0.34,0 0.58,0c2.37018,0.14343 4.61352,-1.08163 5.77413,-3.15319c1.1606,-2.07156 1.03389,-4.62446 -0.32614,-6.5709c-1.36003,-1.94645 -3.71366,-2.94334 -6.05799,-2.56591c-2.24,0.16 -3.22,-0.62 -3.56,-2.84c-0.24866,-1.81519 -1.31304,-3.41729 -2.89,-4.35c-2.60686,-1.6568 -6.04022,-1.10746 -8,1.28c-0.48624,0.71696 -1.23859,1.21013 -2.09,1.37c-1.52,0.16 -2.57,-0.68 -3.06,-2.45c-0.26429,-0.92839 -0.67987,-1.80684 -1.23,-2.6c-0.33,6.58 -3.05,13.91 -7.28,18.07c-6.33,6.85 -14.02,9.91 -22.98,9.25z" fill="none" stroke="none" stroke-width="1"></path><path d="M29.32,26.07c1.18021,-1.39531 2.47469,-2.68979 3.87,-3.87c1.51062,-0.97103 3.1237,-1.77254 4.81,-2.39c0.45409,-0.12548 0.9148,-0.22563 1.38,-0.3c0.39,-0.06 0.86,-0.12 1.36,-0.16c-2.43,-6.18 -8,-12.13 -19.93,-13.53c-1.94142,-0.23504 -3.90925,-0.11988 -5.81,0.34c-2.3999,0.55716 -4.68192,1.53565 -6.74,2.89c7.22,3.28 12.31,8.38 15.05,15.46c2.05426,0.01833 4.07413,0.5293 5.89,1.49z" fill="none" stroke="none" stroke-width="1"></path><path d="M23.31,24.51c-2.74,-7.08 -7.83,-12.18 -15,-15.46c2.04285,-1.34897 4.3075,-2.32727 6.69,-2.89c1.89431,-0.45749 3.85516,-0.57263 5.79,-0.34c11.92,1.4 17.5,7.35 19.93,13.53c1.12656,-0.10276 2.26213,-0.03874 3.37,0.19c0.43,0.09 0.84,0.2 1.25,0.32c0.79798,0.23211 1.57425,0.53325 2.32,0.9c-1.91867,-7.08627 -6.47729,-13.1692 -12.74,-17c-10.88851,-6.11462 -24.47954,-4.49808 -33.63,4l-0.14,0.13c-0.06,0 -0.17,0.17 -0.29,0.3c-0.48105,0.49016 -0.78386,1.12746 -0.86,1.81c-0.0374,0.44171 0.03831,0.88566 0.22,1.29c0.46,1 1.36,1.41 2.61,1.69c2.31549,0.52015 4.51767,1.45523 6.5,2.76c3.87519,2.41061 6.93737,5.92916 8.79,10.1c1.59394,-0.86431 3.37682,-1.32119 5.19,-1.33z" fill="#5e3023" stroke="none" stroke-width="1"></path><path d="M80.76,41.17c-0.58,-2.81 -3.43,-5.66 -3.43,-5.66c-1.74398,-1.53161 -3.9003,-2.51586 -6.2,-2.83c-0.24,0 -0.52,-0.36 -0.63,-0.62c-2.16,-5.21 -6.61,-8 -12.2,-7.45c-1.66743,0.31979 -3.30367,0.7849 -4.89,1.39c-1.36785,-2.25636 -3.36208,-4.06646 -5.74,-5.21c0.34532,1.20475 0.59279,2.43541 0.74,3.68c0.13795,1.3052 0.17472,2.61912 0.11,3.93c0.55013,0.79316 0.96571,1.67161 1.23,2.6c0.49,1.77 1.54,2.61 3.06,2.45c0.85141,-0.15987 1.60376,-0.65304 2.09,-1.37c1.95978,-2.38746 5.39314,-2.9368 8,-1.28c1.57696,0.93271 2.64134,2.53481 2.89,4.35c0.34,2.22 1.32,3 3.56,2.84c3.41588,-0.16845 6.32155,2.46412 6.49,5.88c0.16845,3.41588 -2.46412,6.32155 -5.88,6.49c-0.24,0 -0.48,0 -0.58,0c-2.39,0 -3.23,0.66 -3.58,2.89c-0.35359,2.42441 -2.10173,4.41321 -4.46075,5.07486c-2.35902,0.66165 -4.88644,-0.12796 -6.44925,-2.01486c-0.62086,-1.00672 -1.79737,-1.52741 -2.96,-1.31c-1.15559,0.27405 -2.02729,1.22499 -2.2,2.4c-1.00845,3.69214 -4.36262,6.25304 -8.19,6.25304c-3.82738,0 -7.18155,-2.5609 -8.19,-6.25304c-0.16887,-1.18735 -1.05823,-2.14451 -2.23,-2.4c-1.11142,-0.18842 -2.22826,0.30315 -2.84,1.25c-1.52495,1.99458 -4.14961,2.79846 -6.53,2c-1.46765,-0.36129 -2.73719,-1.27937 -3.54,-2.56c-1,-0.08 -2.06,-0.19 -3.12,-0.36c-1.12624,-0.06993 -2.09648,-0.8184 -2.45,-1.89c-0.33811,-1.08398 0.00441,-2.26509 0.87,-3l0.18,-0.2v0c-3.27042,0.1908 -6.09857,-2.25613 -6.38,-5.52c-0.03998,-0.39232 -0.03998,-0.78768 0,-1.18c0.30991,-2.59063 2.1683,-4.73036 4.69,-5.4c0.59921,-0.14024 1.21643,-0.18746 1.83,-0.14c2.13,0.12 3.15,-0.65 3.5,-2.74c0.21439,-1.60764 1.03767,-3.07166 2.3,-4.09c-0.26524,-1.84743 -0.76947,-3.65254 -1.5,-5.37c-2.52793,1.39158 -4.49345,3.6187 -5.56,6.3c-0.17072,0.30948 -0.4654,0.5314 -0.81,0.61c-1.29076,0.21332 -2.54167,0.6213 -3.71,1.21c-1.62243,0.85615 -2.99928,2.11253 -4,3.65c-0.17,0.25 -0.33,0.49 -0.48,0.75c-0.66194,1.40732 -1.21036,2.8653 -1.64,4.36v3c0.06937,0.13105 0.12628,0.26832 0.17,0.41c0.80227,4.84995 4.60836,8.64799 9.46,9.44c0.54884,0.06397 0.99976,0.46301 1.13,1c1.51885,4.03419 5.18327,6.86666 9.47,7.32c2.57399,0.30324 5.17543,-0.26351 7.39,-1.61c2.55711,4.17709 7.10236,6.72392 12,6.72392c4.89764,0 9.44289,-2.54683 12,-6.72392l0.31,0.16c2.96972,1.71807 6.55068,2.02307 9.76818,0.83197c3.2175,-1.19109 5.73667,-3.75431 6.87182,-6.99197c0.11671,-0.38502 0.46777,-0.65134 0.87,-0.66c3.24947,-0.48948 6.13478,-2.34455 7.92884,-5.09773c1.79406,-2.75318 2.32578,-6.14192 1.46116,-9.31227z" fill="#5e3023" stroke="none" stroke-width="1"></path><path d="M28.28,32.15c0.4642,0.67979 1.18733,1.13898 2,1.27c1.5,0.13 2.52,-0.69 3,-2.41c1.06033,-3.90719 4.70755,-6.54153 8.75,-6.32h0.05c-0.25826,-1.83146 -0.72806,-3.62679 -1.4,-5.35c-0.5,0 -1,0.1 -1.36,0.16c-0.4652,0.07437 -0.92591,0.17452 -1.38,0.3c-1.68285,0.61813 -3.29254,1.41962 -4.8,2.39c-1.39531,1.18021 -2.68979,2.47469 -3.87,3.87l-0.07,-0.06c-1.81499,-0.96418 -3.83491,-1.47859 -5.89,-1.5c0.3,0.77 0.58,1.55 0.82,2.37c0.30609,1.02909 0.55645,2.07394 0.75,3.13c1.34291,0.31381 2.54078,1.07128 3.4,2.15z" fill="#5e3023" stroke="none" stroke-width="1"></path><path d="M22.34,30c0.83756,-0.17558 1.70244,-0.17558 2.54,0c-0.19425,-1.04932 -0.44461,-2.08748 -0.75,-3.11c-0.24,-0.82 -0.52,-1.6 -0.82,-2.37c-1.80555,-0.00493 -3.58455,0.43467 -5.18,1.28c0.73053,1.71746 1.23476,3.52257 1.5,5.37c0.79351,-0.60669 1.72427,-1.00853 2.71,-1.17z" fill="#5e3023" stroke="none" stroke-width="1"></path><path d="M13.69,50.3l-0.18,0.2c-0.86559,0.73491 -1.20811,1.91602 -0.87,3c0.35352,1.0716 1.32376,1.82007 2.45,1.89c1.06,0.17 2.09,0.28 3.12,0.36c-0.46951,-0.7806 -0.76301,-1.65426 -0.86,-2.56c-0.26,-2.01 -1.42,-3 -3.66,-2.89z" fill="#5e3023" stroke="none" stroke-width="1"></path><path d="M44.1,19.54c-1.10787,-0.22874 -2.24344,-0.29276 -3.37,-0.19c0.67194,1.72321 1.14174,3.51854 1.4,5.35c2.07745,0.14168 4.0292,1.04632 5.48,2.54c0.33325,0.35156 0.63757,0.72946 0.91,1.13c0.06472,-1.31088 0.02795,-2.6248 -0.11,-3.93c-0.14721,-1.24459 -0.39468,-2.47525 -0.74,-3.68c-0.74575,-0.36675 -1.52202,-0.66789 -2.32,-0.9c-0.41,-0.12 -0.82,-0.23 -1.25,-0.32z" fill="#5e3023" stroke="none" stroke-width="1"></path><path d="M50,46.49c0.00164,4.33377 -3.44787,7.88082 -7.78,8c-2.09625,0.07279 -4.1352,-0.6921 -5.66635,-2.12568c-1.53115,-1.43357 -2.42845,-3.41782 -2.49365,-5.51432c0.02398,-1.59008 0.39245,-3.15605 1.08,-4.59c1.22063,-2.50747 2.60356,-4.93262 4.14,-7.26c1.58,-2.45 3.85,-2.44 5.53,-0.06c2.25462,3.00543 3.94843,6.39304 5,10c0.06678,0.22886 0.11362,0.46306 0.14,0.7c0.05,0.29 0.05,0.65 0.05,0.85zM42.21,40.49h-0.38c-0.76,1.69 -1.58,3.35 -2.26,5.07c-0.45939,1.07971 -0.09576,2.33359 0.87,3c0.90096,0.69005 2.14704,0.71034 3.07,0.05c0.99821,-0.64063 1.39415,-1.9043 0.94,-3c-0.63,-1.7 -1.45,-3.37 -2.2,-5.07z" fill="#5e3023" stroke="none" stroke-width="1"></path><path d="M64.2,45.42c-0.0043,2.59336 -2.06774,4.71436 -4.66,4.79c-1.2537,0.04313 -2.47299,-0.41457 -3.38862,-1.27203c-0.91563,-0.85746 -1.45226,-2.04414 -1.49138,-3.29797c0.02052,-0.95222 0.24202,-1.88936 0.65,-2.75c0.72,-1.51201 1.53843,-2.97515 2.45,-4.38c1,-1.47 2.31,-1.46 3.31,0c1.3533,1.80294 2.36963,3.8356 3,6c0.03952,0.13779 0.06959,0.27812 0.09,0.42c0.03,0.15 0.04,0.36 0.04,0.49zM59.54,41.85h-0.23c-0.45,1 -0.94,2 -1.35,3c-0.27278,0.64755 -0.05608,1.39767 0.52,1.8c0.54805,0.40021 1.29195,0.40021 1.84,0c0.60747,-0.38744 0.84459,-1.15808 0.56,-1.82c-0.4,-0.96 -0.88,-1.96 -1.34,-2.98z" fill="#5e3023" stroke="none" stroke-width="1"></path><path d="M28.8,45.42c-0.0043,2.59336 -2.06774,4.71436 -4.66,4.79c-1.2537,0.04313 -2.47299,-0.41457 -3.38862,-1.27203c-0.91563,-0.85746 -1.45226,-2.04414 -1.49138,-3.29797c0.01074,-0.95344 0.23273,-1.89265 0.65,-2.75c0.71613,-1.51401 1.53469,-2.9774 2.45,-4.38c0.95,-1.47 2.3,-1.46 3.31,0c1.3456,1.80769 2.36121,3.83891 3,6c0.0363,0.13799 0.06303,0.27833 0.08,0.42c0.04,0.15 0.04,0.36 0.05,0.49zM24.13,41.85h-0.22c-0.46,1 -0.95,2 -1.36,3c-0.27486,0.64964 -0.05305,1.40297 0.53,1.8c0.54491,0.39852 1.28509,0.39852 1.83,0c0.61473,-0.38161 0.85723,-1.1559 0.57,-1.82c-0.41,-0.96 -0.89,-1.96 -1.35,-2.98z" fill="#5e3023" stroke="none" stroke-width="1"></path><path d="M52.78,94.47c2.35,-2.5 9.6,-10.32 9.6,-10.32v0c1.66,-1.8 3.27,-3.54 4.89,-5.26c0.57248,-0.44707 0.7664,-1.22686 0.47,-1.89c-0.34505,-0.66131 -1.0929,-1.00647 -1.82,-0.84l-1.69,0.13c0.17,-0.34 0.28,-0.59 0.4,-0.82c1.06,-2 2.11667,-4.03333 3.17,-6.1c0.71,-1.38 0.08,-2.43 -1.45,-2.43c-3.65,0 -7.3,0 -11,0c-0.7372,-0.04541 -1.42275,0.37955 -1.71,1.06c-2,4.19 -4.07,8.37 -6.1,12.56c-0.3269,0.4939 -0.33487,1.1333 -0.02038,1.63519c0.31449,0.50189 0.89336,0.77358 1.48038,0.69481h4.42c-0.24,0.74 -0.44,1.44 -0.69,2.1l-1.36,4.1c-0.48,1.5 -1,2.87 -1.33,4.27c-0.08579,0.51551 0.06062,1.04259 0.4,1.44c0.43959,0.27925 0.96431,0.3927 1.48,0.32c0.3,-0.02 0.62,-0.38 0.86,-0.65zM51.22,79.93c0.09,-0.22 0.14,-0.39 0.22,-0.56c1.45,-3 2.89,-6 4.36,-9c0.13297,-0.26183 0.37432,-0.45198 0.66,-0.52c2.52,0 5,0 7.7,0c-0.94,1.82 -1.83,3.52 -2.72,5.22l-1,1.9c-0.35767,0.49743 -0.37932,1.16167 -0.0548,1.68133c0.32452,0.51966 0.93087,0.79173 1.5348,0.68867c0.22,0 0.44,0 0.83,0l-7.46,8l-0.14,-0.08c0.12,-0.39 0.22,-0.79 0.35,-1.18c0.44,-1.35 0.91,-2.7 1.34,-4.06c0.23745,-0.49505 0.18341,-1.08057 -0.14065,-1.52379c-0.32405,-0.44322 -0.8656,-0.67232 -1.40935,-0.59621z" fill="#000000" stroke="#5e3023" stroke-width="0.5"></path></g></g></g></g></svg>