<svg version="1.1" xmlns="http://www.w3.org/2000/svg" xmlns:xlink="http://www.w3.org/1999/xlink" width="95.81px" height="63.64px" viewBox="0,0,256,170.03125"><g fill="#5e3023" fill-rule="nonzero" stroke="none" stroke-width="1" stroke-linecap="butt" stroke-linejoin="miter" stroke-miterlimit="10" stroke-dasharray="" stroke-dashoffset="0" font-family="none" font-weight="none" font-size="none" text-anchor="none" style="mix-blend-mode: normal"><g transform="translate(-0.28866,0.05825) scale(2.67195,2.67195)"><g id="Layer_2"><g id="Layer_1-2"><path d="M71.28,18.5c-0.80711,-0.42695 -1.37585,-1.19824 -1.54518,-2.09549c-0.16933,-0.89724 0.07919,-1.82277 0.67518,-2.51451l0.15,-0.18c2.94,-3.02 5.91667,-6.02 8.93,-9c0.53787,-0.62599 1.31552,-0.99512 2.14058,-1.01608c0.82506,-0.02096 1.62046,0.30821 2.18942,0.90608c0.6229,0.57504 0.9619,1.39458 0.92725,2.24161c-0.03465,0.84704 -0.43946,1.63615 -1.10725,2.15839c-2.92,3 -5.88,5.91 -8.83,8.85c-0.86717,1.00361 -2.30616,1.28811 -3.49,0.69z"></path><path d="M55.54,14.75c-0.80711,-0.42695 -1.37585,-1.19824 -1.54518,-2.09549c-0.16933,-0.89724 0.07919,-1.82277 0.67518,-2.51451l0.15,-0.17c2.94,-3.02 5.91667,-6.02 8.93,-9c0.53748,-0.62417 1.3143,-0.99132 2.13777,-1.01038c0.82347,-0.01906 1.61645,0.31175 2.18223,0.91038c0.59308,0.57392 0.91353,1.37335 0.88107,2.19802c-0.03245,0.82467 -0.41473,1.59644 -1.05107,2.12198c-2.93,3 -5.89,5.9 -8.84,8.84c-0.86068,1.01368 -2.30498,1.30337 -3.49,0.7z"></path><path d="M78.83,35.82c-0.12745,-0.51357 -0.5228,-0.91798 -1.03335,-1.05703c-0.51055,-0.13905 -1.05637,0.00902 -1.42665,0.38703l-2.58,2.57c0.06025,0.29358 0.10035,0.59094 0.12,0.89c0.10205,3.38521 -2.52713,6.22793 -5.91,6.39h-0.57c-2.4,0 -3.23,0.66 -3.58,2.89c-0.33051,2.44257 -2.0765,4.45738 -4.44722,5.13194c-2.37073,0.67456 -4.91588,-0.11926 -6.48278,-2.02194c-0.61411,-1.01215 -1.80359,-1.52213 -2.96012,-1.26914c-1.15654,0.25299 -2.02445,1.21303 -2.15988,2.38914c-1.00128,3.69623 -4.35555,6.26276 -8.185,6.26276c-3.82945,0 -7.18372,-2.56652 -8.185,-6.26276c-0.18441,-1.17736 -1.07491,-2.11953 -2.24,-2.37c-1.10776,-0.18147 -2.21806,0.30895 -2.83,1.25c-1.52311,1.99722 -4.14965,2.80168 -6.53,2c-1.46911,-0.36377 -2.74094,-1.28092 -3.55,-2.56c-0.46085,-0.78457 -0.7537,-1.65632 -0.86,-2.56c-0.25,-2 -1.42,-3 -3.65,-2.87v0c-3.27964,0.21813 -6.1243,-2.24308 -6.38,-5.52c-0.04495,-0.39205 -0.04495,-0.78795 0,-1.18c0.19043,-1.88284 1.2237,-3.578 2.81,-4.61c0.58621,-0.38531 1.23135,-0.67242 1.91,-0.85c0.60599,-0.14034 1.22932,-0.19088 1.85,-0.15c2.13,0.12 3.15,-0.65 3.49,-2.74c0.22184,-1.60749 1.04788,-3.07005 2.31,-4.09c0.79621,-0.60591 1.7251,-1.0138 2.71,-1.19c2.23017,-0.45717 4.52697,0.38718 5.93,2.18c0.4642,0.67979 1.18733,1.13898 2,1.27c1.5,0.13 2.53,-0.69 3,-2.41c0.68631,-2.83236 2.81439,-5.09345 5.6,-5.95c1.00685,-0.338 2.07051,-0.47393 3.13,-0.4h0.05c1.09615,0.07786 2.16636,0.37005 3.15,0.86c0.91,-0.92 1.82,-1.83 2.74,-2.74c0.28961,-0.2953 0.42006,-0.71156 0.35078,-1.11933c-0.06928,-0.40777 -0.32989,-0.75759 -0.70078,-0.94067v0c-0.74919,-0.36678 -1.52878,-0.66791 -2.33,-0.9c-0.41,-0.12 -0.82,-0.23 -1.25,-0.32c-1.09714,-0.23249 -2.22238,-0.30324 -3.34,-0.21c-0.5,0 -1,0.1 -1.35,0.16c-0.46833,0.07523 -0.93233,0.17538 -1.39,0.3c-1.68087,0.61956 -3.28745,1.42453 -4.79,2.4c-1.39851,1.17643 -2.69636,2.46758 -3.88,3.86h-0.11c-1.81371,-0.9675 -3.83445,-1.48212 -5.89,-1.5c-1.80544,-0.01425 -3.5859,0.42227 -5.18,1.27c-2.5133,1.3807 -4.47089,3.58917 -5.54,6.25c-0.1681,0.33984 -0.48029,0.58593 -0.85,0.67c-1.28548,0.2088 -2.53048,0.61705 -3.69,1.21c-1.62329,0.85042 -3.00071,2.10387 -4,3.64c-0.16,0.25 -0.33,0.49 -0.48,0.75c-0.66399,1.39728 -1.21573,2.84518 -1.65,4.33v3c0.07047,0.12934 0.12424,0.26711 0.16,0.41c0.80063,4.85448 4.61301,8.65478 9.47,9.44c0.54639,0.06942 0.99464,0.46611 1.13,1c1.51494,4.03707 5.18146,6.87117 9.47,7.32c2.57425,0.30873 5.17747,-0.25841 7.39,-1.61c2.55347,4.18206 7.10002,6.73309 12,6.73309c4.89998,0 9.44653,-2.55103 12,-6.73309v0c2.96877,1.8273 6.60531,2.21199 9.8907,1.04627c3.28538,-1.16572 5.86619,-3.75644 7.0193,-7.04627c0.13189,-0.37999 0.47862,-0.64397 0.88,-0.67c3.24795,-0.49249 6.13114,-2.34818 7.92462,-5.10048c1.79348,-2.75229 2.32663,-6.13935 1.46538,-9.30952z"></path><path d="M82.39,27.43c-0.80711,-0.42695 -1.37585,-1.19824 -1.54518,-2.09549c-0.16933,-0.89724 0.07919,-1.82277 0.67518,-2.51451l0.15,-0.17c2.94,-3.02 5.91667,-6.02 8.93,-9c0.70034,-0.96267 1.90364,-1.42015 3.06664,-1.16591c1.163,0.25424 2.06564,1.17211 2.30039,2.3392c0.23476,1.16709 -0.24279,2.36257 -1.21704,3.04671c-2.92,3 -5.89,5.9 -8.84,8.84c-0.86068,1.01368 -2.30498,1.30337 -3.49,0.7z"></path></g></g></g></g></svg>